/* XPM */
static char * C:\Users\clent\Desktop\yallcoin\yallcoin_core\share\pixmaps\bitcoin64_xpm[] = {
"64 64 412 2",
"  	c None",
". 	c #AAAAAA",
"+ 	c #CBCBCB",
"@ 	c #D6D6D6",
"# 	c #D4D4D4",
"$ 	c #D7D7D7",
"% 	c #E6E6E6",
"& 	c #DDDDDD",
"* 	c #DCDCDC",
"= 	c #CDCDCD",
"- 	c #C5C5C5",
"; 	c #000000",
"> 	c #1C1D22",
", 	c #C6C6C6",
"' 	c #FEFEFE",
") 	c #FFFFFF",
"! 	c #FDFDFD",
"~ 	c #F9F9FA",
"{ 	c #EFEFEF",
"] 	c #E0E0E0",
"^ 	c #040B1A",
"/ 	c #000104",
"( 	c #010101",
"_ 	c #838383",
": 	c #FAFAFA",
"< 	c #F3F3F4",
"[ 	c #E5E5E5",
"} 	c #01040D",
"| 	c #333333",
"1 	c #DFDFDF",
"2 	c #FBFBFB",
"3 	c #F0F0F0",
"4 	c #D8D8D8",
"5 	c #010309",
"6 	c #080808",
"7 	c #A5A5A5",
"8 	c #EEEEEE",
"9 	c #1A1A98",
"0 	c #060B3C",
"a 	c #545454",
"b 	c #FAFAFB",
"c 	c #2121B8",
"d 	c #2525C9",
"e 	c #141481",
"f 	c #000005",
"g 	c #181818",
"h 	c #C2C2C2",
"i 	c #F1F1F1",
"j 	c #1A1A99",
"k 	c #2424C2",
"l 	c #2626CC",
"m 	c #2020B3",
"n 	c #03032A",
"o 	c #787878",
"p 	c #F9F9F9",
"q 	c #32343A",
"r 	c #1B1B9B",
"s 	c #2527C5",
"t 	c #10106F",
"u 	c #000002",
"v 	c #2D2D2D",
"w 	c #DADADA",
"x 	c #6C6C6C",
"y 	c #020610",
"z 	c #1D1DA8",
"A 	c #2526C9",
"B 	c #1E1EA8",
"C 	c #01011D",
"D 	c #050505",
"E 	c #9B9B9B",
"F 	c #FCFCFC",
"G 	c #A8A8A8",
"H 	c #111111",
"I 	c #2525C6",
"J 	c #0B0B5B",
"K 	c #4A4A4A",
"L 	c #ECECEC",
"M 	c #373737",
"N 	c #2626CB",
"O 	c #1A1A9A",
"P 	c #010112",
"Q 	c #131313",
"R 	c #BABABA",
"S 	c #F2F2F2",
"T 	c #707070",
"U 	c #020202",
"V 	c #2424C1",
"W 	c #070747",
"X 	c #6E6E6E",
"Y 	c #F7F7F7",
"Z 	c #ACACAC",
"` 	c #141414",
" .	c #040D1C",
"..	c #17178B",
"+.	c #000009",
"@.	c #272727",
"#.	c #3B3B3B",
"$.	c #140001",
"%.	c #A00015",
"&.	c #1D1DA6",
"*.	c #2222B9",
"=.	c #040433",
"-.	c #030303",
";.	c #929292",
">.	c #F4F4F4",
",.	c #767676",
"'.	c #020000",
").	c #73000C",
"!.	c #F20126",
"~.	c #F00025",
"{.	c #2626CA",
"].	c #13137B",
"^.	c #000003",
"/.	c #414141",
"(.	c #E7E7E7",
"_.	c #B1B1B1",
":.	c #161616",
"<.	c #3D0003",
"[.	c #DA0021",
"}.	c #FF0028",
"|.	c #FB072E",
"1.	c #2020B2",
"2.	c #1F1FAF",
"3.	c #020224",
"4.	c #0E0E0E",
"5.	c #B2B2B2",
"6.	c #3E3E3E",
"7.	c #170001",
"8.	c #B00018",
"9.	c #FD0028",
"0.	c #F40026",
"a.	c #1A1A97",
"b.	c #2525C8",
"c.	c #0E0E68",
"d.	c #000001",
"e.	c #626262",
"f.	c #F5F5F5",
"g.	c #7A7A7A",
"h.	c #030000",
"i.	c #7A000D",
"j.	c #F50026",
"k.	c #FD032B",
"l.	c #EC0024",
"m.	c #1C1CA3",
"n.	c #010118",
"o.	c #212121",
"p.	c #B5B5B5",
"q.	c #191919",
"r.	c #430004",
"s.	c #DE0021",
"t.	c #FA0027",
"u.	c #2526C8",
"v.	c #2424C4",
"w.	c #090953",
"x.	c #878787",
"y.	c #434343",
"z.	c #1B0001",
"A.	c #B60019",
"B.	c #FD042C",
"C.	c #1F1FAE",
"D.	c #191995",
"E.	c #00000E",
"F.	c #383838",
"G.	c #E2E2E2",
"H.	c #F6F6F6",
"I.	c #808080",
"J.	c #040404",
"K.	c #040000",
"L.	c #81000F",
"M.	c #F60026",
"N.	c #2426C0",
"O.	c #2323BE",
"P.	c #05053F",
"Q.	c #0A0A0A",
"R.	c #B9B9B9",
"S.	c #1B1B1B",
"T.	c #4A0005",
"U.	c #E20022",
"V.	c #FA0B31",
"W.	c #191998",
"X.	c #151586",
"Y.	c #000006",
"Z.	c #585858",
"`.	c #484848",
" +	c #1F0001",
".+	c #BC001B",
"++	c #FF0129",
"@+	c #1E1EAB",
"#+	c #2121B6",
"$+	c #03032D",
"%+	c #848484",
"&+	c #050000",
"*+	c #880010",
"=+	c #F80027",
"-+	c #F20026",
";+	c #2222BB",
">+	c #111174",
",+	c #7D7D7D",
"'+	c #BCBCBC",
")+	c #1E1E1E",
"!+	c #500006",
"~+	c #E50023",
"{+	c #FC0027",
"]+	c #2527C7",
"^+	c #010120",
"/+	c #313131",
"(+	c #E4E4E4",
"_+	c #4C4C4C",
":+	c #230001",
"<+	c #C1001C",
"[+	c #FE0028",
"}+	c #FC062D",
"|+	c #2727CC",
"1+	c #2C2CCC",
"2+	c #2525C7",
"3+	c #0C0C5F",
"4+	c #060606",
"5+	c #A1A1A1",
"6+	c #898989",
"7+	c #070000",
"8+	c #8E0011",
"9+	c #F90027",
"0+	c #1C1CA2",
"a+	c #4A4ACF",
"b+	c #8B8BDA",
"c+	c #2929CC",
"d+	c #1B1B9E",
"e+	c #010115",
"f+	c #A9A9A9",
"g+	c #010000",
"h+	c #570007",
"i+	c #E80024",
"j+	c #A7A7E1",
"k+	c #C2C2E9",
"l+	c #2D2DCC",
"m+	c #07074B",
"n+	c #270001",
"o+	c #C6001D",
"p+	c #1D1DAA",
"q+	c #5252D0",
"r+	c #E8E8F6",
"s+	c #D5D5EF",
"t+	c #3434CD",
"u+	c #17178F",
"v+	c #00000B",
"w+	c #0A0000",
"x+	c #950013",
"y+	c #F10025",
"z+	c #1E1EAC",
"A+	c #2A2ACC",
"B+	c #ACACE2",
"C+	c #FDFDFE",
"D+	c #E3E3F4",
"E+	c #3C3CCE",
"F+	c #040437",
"G+	c #5E0008",
"H+	c #EB0024",
"I+	c #F20025",
"J+	c #5656D0",
"K+	c #EBEBF7",
"L+	c #EFEFF9",
"M+	c #4747CF",
"N+	c #13137F",
"O+	c #000004",
"P+	c #2B0002",
"Q+	c #CB001E",
"R+	c #2B2BCC",
"S+	c #B0B0E4",
"T+	c #F7F7FC",
"U+	c #5E5ED2",
"V+	c #020228",
"W+	c #0C0000",
"X+	c #9C0014",
"Y+	c #FB0027",
"Z+	c #1F1FB1",
"`+	c #5C5CD1",
" @	c #EDEDF8",
".@	c #FAFAFD",
"+@	c #7A7AD6",
"@@	c #0F0F6C",
"#@	c #640009",
"$@	c #EE0024",
"%@	c #2F2FCC",
"&@	c #9999DD",
"*@	c #BDBDE7",
"=@	c #BEBEE8",
"-@	c #FEFEFF",
";@	c #D0D0ED",
">@	c #B8B8E6",
",@	c #7B7BD7",
"'@	c #1D1DA7",
")@	c #01011B",
"!@	c #310002",
"~@	c #D0001E",
"{@	c #1F1FB0",
"]@	c #6060D2",
"^@	c #D4D4EF",
"/@	c #FCFCFE",
"(@	c #9A9ADD",
"_@	c #3B3BCE",
":@	c #2424C5",
"<@	c #0A0A57",
"[@	c #100000",
"}@	c #A30015",
"|@	c #1C1CA4",
"1@	c #BBBBE7",
"2@	c #F6F6FB",
"3@	c #BCBCE7",
"4@	c #5858D1",
"5@	c #010110",
"6@	c #6B000A",
"7@	c #1B1B9D",
"8@	c #3535CD",
"9@	c #9F9FDF",
"0@	c #F3F3FA",
"a@	c #D7D7F0",
"b@	c #7C7CD7",
"c@	c #3030CD",
"d@	c #020229",
"e@	c #2F0002",
"f@	c #D5001F",
"g@	c #F30026",
"h@	c #2527C8",
"i@	c #8282D8",
"j@	c #F1F1FA",
"k@	c #F5F5FB",
"l@	c #A1A1DF",
"m@	c #4040CE",
"n@	c #02021F",
"o@	c #FD062D",
"p@	c #2323BF",
"q@	c #7373D5",
"r@	c #4545CE",
"s@	c #1B1B9F",
"t@	c #940012",
"u@	c #3333CD",
"v@	c #C8C8EB",
"w@	c #5353D0",
"x@	c #161689",
"y@	c #090000",
"z@	c #B20018",
"A@	c #7878D6",
"B@	c #F8F8FC",
"C@	c #DDDDF2",
"D@	c #FBFBFD",
"E@	c #F9F9FD",
"F@	c #7070D5",
"G@	c #2525CA",
"H@	c #10106E",
"I@	c #CCCCEC",
"J@	c #E1E1F3",
"K@	c #8888D9",
"L@	c #4242CE",
"M@	c #AFAFE3",
"N@	c #8989D9",
"O@	c #08084D",
"P@	c #2D0002",
"Q@	c #DF0022",
"R@	c #FB0B31",
"S@	c #2121B7",
"T@	c #7D7DD7",
"U@	c #B6B6E5",
"V@	c #4E4ECF",
"W@	c #3232CD",
"X@	c #9C9CDE",
"Y@	c #030332",
"Z@	c #440004",
"`@	c #FD0027",
" #	c #2526CA",
".#	c #3636CD",
"+#	c #DADAF1",
"@#	c #2F2FCD",
"##	c #B1B1E4",
"$#	c #FE032B",
"%#	c #2323C0",
"&#	c #6161D2",
"*#	c #4646CF",
"=#	c #7474D5",
"-#	c #1F1FAC",
";#	c #2627CB",
">#	c #3030CC",
",#	c #080000",
"'#	c #B30019",
")#	c #2527C9",
"!#	c #08084C",
"~#	c #2E0002",
"{#	c #E00022",
"]#	c #2323BD",
"^#	c #030331",
"/#	c #450004",
"(#	c #01011F",
"_#	c #2121B5",
":#	c #FE042C",
"<#	c #FC0028",
"[#	c #0F0F6E",
"}#	c #CC001E",
"|#	c #2627CC",
"1#	c #2628C9",
"2#	c #2222BD",
"3#	c #460004",
"4#	c #2222B8",
"5#	c #6C000A",
"6#	c #940013",
"7#	c #2628CA",
"8#	c #2424C3",
"9#	c #1C0001",
"0#	c #E10022",
"a#	c #030330",
"b#	c #470004",
"c#	c #030724",
"d#	c #FA0128",
"e#	c #EF0025",
"                                                    . + @ # $ % % & # * = -                                                     ",
"                                            ; ; ; > , ' ) ) ) ) ) ) ) ) ' ! ~ { ] +                                             ",
"                                        ; ^ / ; ; ( _ : ) ) ) ) ) ) ) ) ) ) ) ) ) ! < [                                         ",
"                                  ; ; } ; ; ; ; ; ; | 1 ) ) ) ) ) ) ) ) ) ) ) ) ) ) ) ) 2 3 4                                   ",
"                                ; 5 ; ; ; ; ; ; ; ; 6 7 ! ) ) ) ) ) ) ) ) ) ) ) ) ) ) ) ) ) ! 8                                 ",
"                            9 0 ; ; ; ; ; ; ; ; ; ; ; a 3 ) ) ) ) ) ) ) ) ) ) ) ) ) ) ) ) ) ) ) b [                             ",
"                          c d e f ; ; ; ; ; ; ; ; ; ; g h ' ) ) ) ) ) ) ) ) ) ) ) ) ) ) ) ) ) ) ) ' i                           ",
"                      j k l l m n ; ; ; ; ; ; ; ; ; ; ( o p ) ) ) ) ) ) ) ) ) ) ) ) ) ) ) ) ) ) ) ) # q ;                       ",
"                    r s l l l d t u ; ; ; ; ; ; ; ; ; ; v w ) ) ) ) ) ) ) ) ) ) ) ) ) ) ) ) ) ) ) i x ( y ;                     ",
"                  z A l l l l l B C ; ; ; ; ; ; ; ; ; ; D E F ) ) ) ) ) ) ) ) ) ) ) ) ) ) ) ) ) F G H ; ; } ;                   ",
"                r A l l l l l l I J ; ; ; ; ; ; ; ; ; ; ; K L ) ) ) ) ) ) ) ) ) ) ) ) ) ) ) ) ) $ M ; ; ; ; } ;                 ",
"              j s l l l l l l l N O P ; ; ; ; ; ; ; ; ; ; Q R ' ) ) ) ) ) ) ) ) ) ) ) ) ) ) ) S T U ; ; ; ; ; y ;               ",
"              k l l l l l l l l l V W ; ; ; ; ; ; ; ; ; ; ; X Y ) ) ) ) ) ) ) ) ) ) ) ) ) ) ! Z ` ; ; ; ; ; ; ;  .              ",
"            c l l l l l l l l l l N ..+.; ; ; ; ; ; ; ; ; ; @.# ) ) ) ) ) ) ) ) ) ) ) ) ) ) w #.; ; ; ; ; ; ; ; $.%.            ",
"          &.N l l l l l l l l l l l *.=.; ; ; ; ; ; ; ; ; ; -.;.F ) ) ) ) ) ) ) ) ) ) ) ) >.,.U ; ; ; ; ; ; ; '.).!.~.          ",
"          s l l l l l l l l l l l l {.].^.; ; ; ; ; ; ; ; ; ; /.(.) ) ) ) ) ) ) ) ) ) ) ! _.:.; ; ; ; ; ; ; ; <.[.}.|.          ",
"        1.l l l l l l l l l l l l l l 2.3.; ; ; ; ; ; ; ; ; ; 4.5.' ) ) ) ) ) ) ) ) ) ) * 6.; ; ; ; ; ; ; ; 7.8.9.}.}.0.        ",
"      a.A l l l l l l l l l l l l l l b.c.d.; ; ; ; ; ; ; ; ; ; e.>.) ) ) ) ) ) ) ) ) f.g.-.; ; ; ; ; ; ; h.i.j.}.}.}.k.l.      ",
"      c l l l l l l l l l l l l l l l l m.n.; ; ; ; ; ; ; ; ; ; o.= ) ) ) ) ) ) ) ) ! p.q.; ; ; ; ; ; ; ; r.s.}.}.}.}.}.t.      ",
"      u.l l l l l l l l l l l l l l l l v.w.; ; ; ; ; ; ; ; ; ; U x.2 ) ) ) ) ) ) ) 1 y.; ; ; ; ; ; ; ; z.A.9.}.}.}.}.}.B.      ",
"    C.l l l l l l l l l l l l l l l l l N D.E.; ; ; ; ; ; ; ; ; ; F.G.) ) ) ) ) ) H.I.J.; ; ; ; ; ; ; K.L.M.}.}.}.}.}.}.}.M.    ",
"    N.l l l l l l l l l l l l l l l l l l O.P.; ; ; ; ; ; ; ; ; ; Q.. ' ) ) ) ) ! R.S.; ; ; ; ; ; ; ; T.U.}.}.}.}.}.}.}.}.V.    ",
"  W.{.l l l l l l l l l l l l l l l l l l N X.Y.; ; ; ; ; ; ; ; ; ; Z.i ) ) ) ) G.`.; ; ; ; ; ; ; ;  +.+9.}.}.}.}.}.}.}.}.++l.  ",
"  @+l l l l l l l l l l l l l l l l l l l l #+$+; ; ; ; ; ; ; ; ; ; S., ) ) ) Y %+J.; ; ; ; ; ; ; &+*+=+}.}.}.}.}.}.}.}.}.}.-+  ",
"  ;+l l l l l l l l l l l l l l l l l l l l d >+u ; ; ; ; ; ; ; ; ; ( ,+p ) ' '+)+; ; ; ; ; ; ; ; !+~+}.}.}.}.}.}.}.}.}.}.}.{+  ",
"  ]+l l l l l l l l l l l l l l l l l l l l l @+^+; ; ; ; ; ; ; ; ; ; /+& ) (+_+; ; ; ; ; ; ; ; :+<+[+}.}.}.}.}.}.}.}.}.}.}.}+  ",
"D.{.l l l l l l l l l l l l l |+1+l l l l l l 2+3+d.; ; ; ; ; ; ; ; ; 4+5+H.6+D ; ; ; ; ; ; ; 7+8+9+}.}.}.}.}.}.}.}.}.}.}.}.++l.",
"0+N l l l l l l l l l l l l l a+b+c+l l l l l l d+e+; ; ; ; ; ; ; ; ; ; K f+o.; ; ; ; ; ; ; g+h+i+}.}.}.}.}.}.}.}.}.}.}.}.}.}.~.",
"@+l l l l l l l l l l l l l c+j+k+l+l l l l l l k m+; ; ; ; ; ; ; ; ; ; J.g ; ; ; ; ; ; ; ; n+o+[+}.}.}.}.}.}.}.}.}.}.}.}.}.}.j.",
"p+l l l l l l l l l l l l l q+r+s+t+l l l l l l N u+v+; ; ; ; ; ; ; ; ; ; ; ; ; ; ; ; ; ; w+x+t.}.}.}.}.}.}.}.}.}.}.}.}.}.}.}.y+",
"z+l l l l l l l l l l l l A+B+C+D+E+l l l l l l l ;+F+; ; ; ; ; ; ; ; ; ; ; ; ; ; ; ; ; g+G+H+}.}.}.}.}.}.}.}.}.}.}.}.}.}.}.}.I+",
"c l l l l l l l l l l l l J+K+) L+M+l l l l l l l {.N+O+; ; ; ; ; ; ; ; ; ; ; ; ; ; ; ; P+Q+[+}.}.}.}.}.}.}.}.}.}.}.}.}.}.}.}.}.",
"c l l l l l l l l l l l R+S+C+) T+U+l l l l l l l l 1.V+; ; ; ; ; ; ; ; ; ; ; ; ; ; ; W+X+Y+}.}.}.}.}.}.}.}.}.}.}.}.}.}.}.}.}.}.",
"Z+l l l l c+A+A+A+A+A+A+`+ @) ) .@+@A+A+A+A+A+A+c+l b.@@d.; ; ; ; ; ; ; ; ; ; ; ; ; g+#@$@}.}.}.}.}.}.}.}.}.}.}.}.}.}.}.}.}.}.M.",
"p+l l l %@&@*@=@=@=@=@=@s+-@) ) C+;@=@=@=@=@=@>@,@c+l '@)@; ; ; ; ; ; ; ; ; ; ; ; ; !@~@[+}.}.}.}.}.}.}.}.}.}.}.}.}.}.}.}.}.}.y+",
"{@l l l |+]@^@/@) ) ) ) ) ) ) ) ) ) ) ) ) C+r+(@_@l l :@<@; ; ; ; ; ; ; ; ; ; ; ; [@}@{+}.}.}.}.}.}.}.}.}.}.}.}.}.}.}.}.}.}.}.t.",
"|@N l l l l M+1@.@) ) ) ) ) ) ) ) ) ) ) 2@3@4@c+l l l N j 5@; ; ; ; ; ; ; ; ; ; '.6@~.}.}.}.}.}.}.}.}.}.}.}.}.}.}.}.}.}.}.}.}.y+",
"7@{.l l l l l 8@9@0@) ) ) ) ) ) ) ) /@a@b@c@l l l l l l *.d@; ; ; ; ; ; ; ; ; ; e@f@}.}.}.}.}.}.}.}.}.}.}.}.}.}.}.}.}.}.}.}.++g@",
"  h@l l l l l l 1+i@j@) ) ) ) ) ) k@l@m@|+l l l l l l l {@n@; ; ; ; ; ; ; ; ; ; 6@9+}.}.}.}.}.}.}.}.}.}.}.}.}.}.}.}.}.}.}.}.o@  ",
"  p@l l l l l l l q@2@) ) ) ) ) ) K+r@l l l l l l l l l s@5@; ; ; ; ; ; ; ; ; g+t@9.}.}.}.}.}.}.}.}.}.}.}.}.}.}.}.}.}.}.}.}.[+  ",
"  m l l l l l l u@v@-@) ) ) ) ) ) k@w@l l l l l l l l N x@^.; ; ; ; ; ; ; ; ; y@z@[+}.}.}.}.}.}.}.}.}.}.}.}.}.}.}.}.}.}.}.}.t.  ",
"  0+N l l l l l A@2@) ) B@C@D@) ) E@F@l l l l l l l l G@H@; ; ; ; ; ; ; ; ; ; z.Q+}.}.}.}.}.}.}.}.}.}.}.}.}.}.}.}.}.}.}.}.++j.  ",
"    :@l l l l 8@I@) C+J@K@L@M@B@) /@N@l l l l l l l l 2+O@; ; ; ; ; ; ; ; ; ; P@Q@}.}.}.}.}.}.}.}.}.}.}.}.}.}.}.}.}.}.}.}.R@    ",
"    S@l l l l T@T+k@U@V@|+l W@X@0@C+9@|+l l l l l l l O.Y@; ; ; ; ; ; ; ; ; ; Z@~.}.}.}.}.}.}.}.}.}.}.}.}.}.}.}.}.}.}.}.}.`@    ",
"       #l l .#I@+#b@@#l l l l 1+K@K+##c+l l l l l l l {@n@; ; ; ; ; ; ; ; ; ; 6@t.}.}.}.}.}.}.}.}.}.}.}.}.}.}.}.}.}.}.}.$#      ",
"      %#l l &#l@*#|+l l l l l l c+=#X@A+l l l l l l l d+5@; ; ; ; ; ; ; ; ; g+t@9.}.}.}.}.}.}.}.}.}.}.}.}.}.}.}.}.}.}.}.[+      ",
"      -#;#l l+R+l l l l l l l l l |+>#l l l l l l l N x@^.; ; ; ; ; ; ; ; ; ,#'#[+}.}.}.}.}.}.}.}.}.}.}.}.}.}.}.}.}.}.++t.      ",
"        O.l l l l l l l l l l l l l l l l l l l l l G@H@; ; ; ; ; ; ; ; ; ; z.Q+}.}.}.}.}.}.}.}.}.}.}.}.}.}.}.}.}.}.}.{+        ",
"          )#l l l l l l l l l l l l l l l l l l l l 2+!#; ; ; ; ; ; ; ; ; ; ~#{#}.}.}.}.}.}.}.}.}.}.}.}.}.}.}.}.}.}.o@          ",
"          S@l l l l l l l l l l l l l l l l l l l l ]#^#; ; ; ; ; ; ; ; ; ; /#~.}.}.}.}.}.}.}.}.}.}.}.}.}.}.}.}.}.}.{+          ",
"            v.l l l l l l l l l l l l l l l l l l l 2.(#; ; ; ; ; ; ; ; ; ; 6@t.}.}.}.}.}.}.}.}.}.}.}.}.}.}.}.}.}.[+            ",
"              b.l l l l l l l l l l l l l l l l l l d+5@; ; ; ; ; ; ; ; ; g+t@9.}.}.}.}.}.}.}.}.}.}.}.}.}.}.}.}.}.              ",
"              _#)#l l l l l l l l l l l l l l l l N x@^.; ; ; ; ; ; ; ; ; ,#'#[+}.}.}.}.}.}.}.}.}.}.}.}.}.}.}.:#<#              ",
"                1.;#l l l l l l l l l l l l l l l G@[#; ; ; ; ; ; ; ; ; ; z.}#}.}.}.}.}.}.}.}.}.}.}.}.}.}.}.++9+                ",
"                  %#|#l l l l l l l l l l l l l l 2+!#; ; ; ; ; ; ; ; ; ; ~#{#}.}.}.}.}.}.}.}.}.}.}.}.}.}.++[+                  ",
"                    c 1#l l l l l l l l l l l l l 2#^#; ; ; ; ; ; ; ; ; ; 3#~.}.}.}.}.}.}.}.}.}.}.}.}.}.:#9+                    ",
"                      4#{.l l l l l l l l l l l l 2.(#; ; ; ; ; ; ; ; ; ; 5#t.}.}.}.}.}.}.}.}.}.}.}.}.}.<#                      ",
"                          :@l l l l l l l l l l l d+5@; ; ; ; ; ; ; ; ; g+6#9.}.}.}.}.}.}.}.}.}.}.}.[+                          ",
"                            %#7#l l l l l l l l N x@^.; ; ; ; ; ; ; ; ; ,#'#[+}.}.}.}.}.}.}.}.}.o@{+                            ",
"                                8#|#l l l l l l G@[#; ; ; ; ; ; ; ; ; ; 9#}#}.}.}.}.}.}.}.}.++{+                                ",
"                                  2#b.;#l l l l 2+m+; ; ; ; ; ; ; ; ; ; ~#0#}.}.}.}.}.}.$#[+t.                                  ",
"                                        :@{.l l 2#a#; ; ; ; ; ; ; ; ; ; b#~.}.}.}.++[+`@                                        ",
"                                            ]#k z+c#/ ; ; ; ; ; ; ; ; ; 5#d#o@[+t.j.                                            ",
"                                                    ; ; ; ; ; ; ; ; ; ; L.e#                                                    "};
