/* XPM */
static char * C:\Users\clent\Desktop\yallcoin\yallcoin_core\share\pixmaps\bitcoin16_xpm[] = {
"16 16 150 2",
"  	c None",
". 	c #030303",
"+ 	c #8E9199",
"@ 	c #F3F3F3",
"# 	c #F6F6F6",
"$ 	c #E7E8EC",
"% 	c #F4F4F4",
"& 	c #1D1DA5",
"* 	c #071134",
"= 	c #000104",
"- 	c #4F4F4F",
"; 	c #EFEFEF",
"> 	c #FFFFFF",
", 	c #F9F9FB",
"' 	c #E2E2E2",
") 	c #293BBA",
"! 	c #2526C8",
"~ 	c #0F0F6D",
"{ 	c #000001",
"] 	c #161616",
"^ 	c #C0C0C0",
"/ 	c #FEFEFE",
"( 	c #FAFAFA",
"_ 	c #959595",
": 	c #1D3358",
"< 	c #2424C1",
"[ 	c #2627CC",
"} 	c #2626CC",
"| 	c #1E1EA8",
"1 	c #01011C",
"2 	c #010101",
"3 	c #747474",
"4 	c #F8F8F8",
"5 	c #CACACA",
"6 	c #282828",
"7 	c #32030B",
"8 	c #C0001C",
"9 	c #262AC8",
"0 	c #2525C6",
"a 	c #0A0A59",
"b 	c #000000",
"c 	c #2A2A2A",
"d 	c #D8D8D8",
"e 	c #ECECEC",
"f 	c #5C5C5C",
"g 	c #110101",
"h 	c #A60016",
"i 	c #F61035",
"j 	c #2323C0",
"k 	c #1A1A9A",
"l 	c #010111",
"m 	c #040404",
"n 	c #999999",
"o 	c #9A9A9A",
"p 	c #0C0A0A",
"q 	c #6F000B",
"r 	c #F20025",
"s 	c #FF0129",
"t 	c #FA0027",
"u 	c #2732BF",
"v 	c #3232CD",
"w 	c #3838CD",
"x 	c #2323C1",
"y 	c #060645",
"z 	c #434343",
"A 	c #B3B3B3",
"B 	c #2B2B2B",
"C 	c #380003",
"D 	c #D80020",
"E 	c #FF0028",
"F 	c #EB2249",
"G 	c #2426C5",
"H 	c #2727CC",
"I 	c #2929CC",
"J 	c #9393DC",
"K 	c #7D7DD7",
"L 	c #2727CB",
"M 	c #17178B",
"N 	c #000008",
"O 	c #1D1D1D",
"P 	c #150101",
"Q 	c #AC0017",
"R 	c #FC0028",
"S 	c #FA082F",
"T 	c #2729C5",
"U 	c #7979D6",
"V 	c #AAAAE2",
"W 	c #E5E5F5",
"X 	c #C7C7EB",
"Y 	c #9595DC",
"Z 	c #3737BB",
"` 	c #030332",
" .	c #020000",
"..	c #76000C",
"+.	c #F30026",
"@.	c #FB082F",
"#.	c #2832C0",
"$.	c #5454D0",
"%.	c #DADAF1",
"&.	c #FEFEFF",
"*.	c #DDDDF2",
"=.	c #6F6FD4",
"-.	c #2929C9",
";.	c #0C0C5F",
">.	c #260001",
",.	c #D50020",
"'.	c #EC224A",
").	c #2424C3",
"!.	c #4949CF",
"~.	c #D1D1EE",
"{.	c #CFCFED",
"].	c #BDBDE7",
"^.	c #2C2CCC",
"/.	c #2424C6",
"(.	c #070747",
"_.	c #410004",
":.	c #F00025",
"<.	c #FD0028",
"[.	c #5052CD",
"}.	c #5B5BD1",
"|.	c #3939CD",
"1.	c #6A6AD3",
"2.	c #2A2ACC",
"3.	c #2222BC",
"4.	c #03032C",
"5.	c #68000A",
"6.	c #FA1035",
"7.	c #1F1FAD",
"8.	c #01011B",
"9.	c #010000",
"0.	c #900012",
"a.	c #FE032B",
"b.	c #FE0028",
"c.	c #2A3CBD",
"d.	c #00000C",
"e.	c #060000",
"f.	c #AF0018",
"g.	c #DE305C",
"h.	c #2525C8",
"i.	c #272AC9",
"j.	c #2626CB",
"k.	c #151584",
"l.	c #000002",
"m.	c #180001",
"n.	c #C9001D",
"o.	c #2525C5",
"p.	c #172670",
"q.	c #030816",
"r.	c #260816",
"s.	c #CA2247",
"          . + @ # $ %           ",
"      & * = - ; > > > , '       ",
"    ) ! ~ { ] ^ / > > ( _ :     ",
"  < [ } | 1 2 3 4 > / 5 6 7 8   ",
"  9 } } 0 a b c d > e f g h i   ",
"j } } } } k l m n 4 o p q r s t ",
"u } } v w x y b z A B C D E E F ",
"G H I J K L M N m O P Q R E E S ",
"T U V W X Y Z ` b  ...+.E E E @.",
"#.$.%.&.*.=.-.;.b >.,.E E E E '.",
").!.~.{.].^./.(.b _.:.E E E s <.",
"  [.}.|.1.2.3.4.b 5.t E E E 6.  ",
"  0 [ } } } 7.8.9.0.R E E a.b.  ",
"    c.[ } } k d.e.f.b.E a.g.    ",
"      h.i.j.k.l.m.n.s 6.b.      ",
"          o.p.q.r.s.<.          "};
