/* XPM */
static char * C:\Users\clent\Desktop\yallcoin\yallcoin_core\share\pixmaps\bitcoin32_xpm[] = {
"32 32 268 2",
"  	c None",
". 	c #323232",
"+ 	c #C0C2C9",
"@ 	c #E5E6E8",
"# 	c #EFEFEF",
"$ 	c #F0F0F0",
"% 	c #E6E7E9",
"& 	c #D6D8DF",
"* 	c #E8E8E8",
"= 	c #000000",
"- 	c #0B1A32",
"; 	c #020610",
"> 	c #121212",
", 	c #BABABA",
"' 	c #FEFEFE",
") 	c #FFFFFF",
"! 	c #FBFBFC",
"~ 	c #EDEEF0",
"{ 	c #EDEDED",
"] 	c #0E0E67",
"^ 	c #08152A",
"/ 	c #000104",
"( 	c #6C6C6C",
"_ 	c #F7F7F7",
": 	c #F4F4F6",
"< 	c #2323BD",
"[ 	c #2021B2",
"} 	c #020229",
"| 	c #262626",
"1 	c #D3D3D3",
"2 	c #FCFCFC",
"3 	c #B8B8B8",
"4 	c #2630BE",
"5 	c #2626CC",
"6 	c #2525C9",
"7 	c #10106E",
"8 	c #000001",
"9 	c #030303",
"0 	c #929292",
"a 	c #E4E4E4",
"b 	c #4C4C4C",
"c 	c #0E203B",
"d 	c #1D1DA7",
"e 	c #01011C",
"f 	c #3F3F3F",
"g 	c #E7E7E7",
"h 	c #F8F8F8",
"i 	c #898989",
"j 	c #050505",
"k 	c #2323BE",
"l 	c #2525C6",
"m 	c #0B0B5A",
"n 	c #0E0E0E",
"o 	c #B2B2B2",
"p 	c #C1C1C1",
"q 	c #212121",
"r 	c #010000",
"s 	c #610008",
"t 	c #2020B3",
"u 	c #2627CB",
"v 	c #1B1B9A",
"w 	c #010111",
"x 	c #626262",
"y 	c #F4F4F4",
"z 	c #515151",
"A 	c #360003",
"B 	c #D40323",
"C 	c #F30026",
"D 	c #252BC3",
"E 	c #2323C1",
"F 	c #060646",
"G 	c #202020",
"H 	c #CCCCCC",
"I 	c #F9F9F9",
"J 	c #8D8D8D",
"K 	c #060606",
"L 	c #130000",
"M 	c #AA0017",
"N 	c #FC0028",
"O 	c #F5153A",
"P 	c #2121B7",
"Q 	c #2626CB",
"R 	c #16168B",
"S 	c #000008",
"T 	c #020202",
"U 	c #878787",
"V 	c #FBFBFB",
"W 	c #C4C4C4",
"X 	c #242424",
"Y 	c #020000",
"Z 	c #72000C",
"` 	c #FF0028",
" .	c #FF0129",
"..	c #F70026",
"+.	c #262DC0",
"@.	c #2222B9",
"#.	c #030333",
"$.	c #373737",
"%.	c #E2E2E2",
"&.	c #E9E9E9",
"*.	c #555555",
"=.	c #3C0003",
"-.	c #DA0021",
";.	c #F2193F",
">.	c #2628C9",
",.	c #2626CA",
"'.	c #12127A",
").	c #000003",
"!.	c #090909",
"~.	c #A9A9A9",
"{.	c #FAFAFA",
"].	c #939393",
"^.	c #080808",
"/.	c #160001",
"(.	c #B00018",
"_.	c #FD0028",
":.	c #FD062D",
"<.	c #2121B6",
"[.	c #1F1FAF",
"}.	c #020224",
"|.	c #575757",
"1.	c #C8C8C8",
"2.	c #030000",
"3.	c #79000D",
"4.	c #F40026",
"5.	c #2635B5",
"6.	c #3A3ACD",
"7.	c #5151D0",
"8.	c #2525C8",
"9.	c #0E0E66",
"0.	c #1A1A1A",
"a.	c #ABABAB",
"b.	c #595959",
"c.	c #010101",
"d.	c #420004",
"e.	c #DE0021",
"f.	c #E22952",
"g.	c #242ABC",
"h.	c #2828CC",
"i.	c #9B9BDE",
"j.	c #9898DD",
"k.	c #2727CC",
"l.	c #1C1CA3",
"m.	c #010118",
"n.	c #1B1B1B",
"o.	c #040404",
"p.	c #1A0001",
"q.	c #B60019",
"r.	c #F1173C",
"s.	c #2324C0",
"t.	c #4A4ACF",
"u.	c #E3E3F4",
"v.	c #B1B1E4",
"w.	c #2424C4",
"x.	c #090952",
"y.	c #040000",
"z.	c #80000F",
"A.	c #F60026",
"B.	c #FB032A",
"C.	c #2324C1",
"D.	c #2E2ECC",
"E.	c #3939CD",
"F.	c #3B3BCD",
"G.	c #A4A4E0",
"H.	c #FCFCFE",
"I.	c #C4C4EA",
"J.	c #3D3DCE",
"K.	c #2B2BCC",
"L.	c #191995",
"M.	c #00000E",
"N.	c #480004",
"O.	c #E20022",
"P.	c #FC032B",
"Q.	c #252BBD",
"R.	c #6464D2",
"S.	c #CDCDEC",
"T.	c #DFDFF3",
"U.	c #F3F3FA",
"V.	c #F2F2FA",
"W.	c #DCDCF2",
"X.	c #B9B9E6",
"Y.	c #4F4FD0",
"Z.	c #05053E",
"`.	c #1E0001",
" +	c #BC001A",
".+	c #F2173C",
"++	c #2635B7",
"@+	c #2A2ACC",
"#+	c #7878D6",
"$+	c #FEFEFF",
"%+	c #F1F1F9",
"&+	c #AEAEE3",
"*+	c #14147E",
"=+	c #000002",
"-+	c #85000F",
";+	c #F80027",
">+	c #E32952",
",+	c #2222BA",
"'+	c #7171D5",
")+	c #F7F7FC",
"!+	c #F5F5FB",
"~+	c #7474D5",
"{+	c #2C2CCC",
"]+	c #13137E",
"^+	c #180001",
"/+	c #C8001D",
"(+	c #FB0027",
"_+	c #2628CA",
":+	c #FDFDFE",
"<+	c #5C5CD1",
"[+	c #0C0C61",
"}+	c #2C0002",
"|+	c #DF0022",
"1+	c #262DC3",
"2+	c #5A5AD1",
"3+	c #E7E7F6",
"4+	c #C6C6EA",
"5+	c #6666D3",
"6+	c #B2B2E4",
"7+	c #F4F4FB",
"8+	c #F00025",
"9+	c #F4193E",
"0+	c #2222BD",
"a+	c #8B8BDA",
"b+	c #8C8CDA",
"c+	c #3535CD",
"d+	c #3333CD",
"e+	c #9A9ADD",
"f+	c #7C7CD7",
"g+	c #2121B8",
"h+	c #020227",
"i+	c #6A000A",
"j+	c #FA0027",
"k+	c #272CC6",
"l+	c #3131CD",
"m+	c #1D1DA8",
"n+	c #010117",
"o+	c #910012",
"p+	c #F71439",
"q+	c #2627CC",
"r+	c #191994",
"s+	c #000007",
"t+	c #060000",
"u+	c #FE0028",
"v+	c #FE032B",
"w+	c #FC0027",
"x+	c #2424C5",
"y+	c #13137D",
"z+	c #190001",
"A+	c #C9001D",
"B+	c #2731C2",
"C+	c #0C0C60",
"D+	c #F11E44",
"E+	c #2731C3",
"F+	c #05053D",
"G+	c #2525C7",
"H+	c #272CC7",
"I+	c #920012",
"J+	c #2424C6",
"K+	c #272EC6",
"L+	c #181894",
"M+	c #070000",
"N+	c #111176",
"O+	c #14294A",
"P+	c #09172D",
"Q+	c #01040D",
"R+	c #17172D",
"S+	c #AE294E",
"                        . + @ # $ % & *                         ",
"                  = - ; > , ' ) ) ) ) ) ! ~ {                   ",
"              ] ^ / = = = ( _ ) ) ) ) ) ) ) ) : {               ",
"            < [ } = = = = | 1 ) ) ) ) ) ) ) ) ) 2 3             ",
"          4 5 6 7 8 = = = 9 0 2 ) ) ) ) ) ) ) ) a b c           ",
"        4 5 5 5 d e = = = = f g ) ) ) ) ) ) ) h i j = c         ",
"      k 5 5 5 5 l m = = = = n o ' ) ) ) ) ) ' p q = = r s       ",
"    t u 5 5 5 5 5 v w = = = = x y ) ) ) ) ) g z = = = A B C     ",
"    D 5 5 5 5 5 5 E F = = = = G H ) ) ) ) I J K = = L M N O     ",
"  P 5 5 5 5 5 5 5 Q R S = = = T U V ) ) ' W X = = Y Z C `  ...  ",
"  +.5 5 5 5 5 5 5 5 @.#.= = = = $.%.) ) &.*.= = = =.-.` ` ` ;.  ",
"  >.5 5 5 5 5 5 5 5 ,.'.).= = = !.~.' {.].^.= = /.(._.` ` ` :.  ",
"<.5 5 5 5 5 5 5 5 5 5 [.}.= = = = |.$ 1.| = = 2.3.4.` ` ` ` ` ..",
"5.5 5 5 5 5 5 6.7.5 5 8.9.8 = = = 0.a.b.c.= = d.e.` ` ` ` ` ` f.",
"g.5 5 5 5 5 h.i.j.k.5 5 l.m.= = = = n.o.= = p.q._.` ` ` ` ` ` r.",
"s.5 5 5 5 5 t.u.v.h.5 5 w.x.= = = = = = = y.z.A.` ` ` ` ` ` ` B.",
"C.5 D.E.6.F.G.H.I.J.6.E.K.L.M.= = = = = = N.O.` ` ` ` ` ` ` ` P.",
"Q.5 R.S.T.T.U.) V.T.W.X.Y.k Z.= = = = = `. +_.` ` ` ` ` ` ` ` .+",
"++5 @+#+u.$+) ) ) %+&+t.k.,.*+=+= = = 2.-+;+` ` ` ` ` ` ` ` ` >+",
",+5 5 k.'+)+) ) !+~+{+5 5 Q ]+8 = = = ^+/+` ` ` ` ` ` ` ` ` ` (+",
"  _+5 K.v.:+U.H.)+<+5 5 5 6 [+= = = = }+|+` ` ` ` ` ` ` ` ` :.  ",
"  1+5 2+3+4+5+6+7+#+5 5 5 w.Z.= = = = d.8+` ` ` ` ` ` ` ` ` 9+  ",
"  0+h.a+b+c+5 d+e+f+5 5 5 g+h+= = = = i+j+` ` ` ` ` ` ` `  ._.  ",
"    k+l+h.5 5 5 @+D.5 5 5 m+n+= = = r o+_.` ` ` ` ` ` ` ` p+    ",
"    0+q+5 5 5 5 5 5 5 5 5 r+s+= = = t+(.u+` ` ` ` ` ` ` v+w+    ",
"      x+5 5 5 5 5 5 5 5 Q y+8 = = = z+A+` ` ` ` ` ` ` ` u+      ",
"        B+5 5 5 5 5 5 5 6 C+= = = = }+|+` ` ` ` ` ` ` D+        ",
"          E+5 5 5 5 5 5 w.F+= = = = d.8+` ` ` ` ` ` D+          ",
"            G+q+5 5 5 5 g+h+= = = = i+j+` ` ` ` v+u+            ",
"              w.H+5 5 5 m+n+= = = r I+_.` `  .p+w+              ",
"                  J+K+_+L+s+= = = M+(.u+:.9+_.                  ",
"                        N+O+P+Q+Q+R+S+(+                        "};
