<svg id="svg" version="1.1" xmlns="http://www.w3.org/2000/svg" xmlns:xlink="http://www.w3.org/1999/xlink" width="400" height="400" viewBox="0, 0, 400,400"><g id="svgg"><path id="path0" d="M90.200 30.778 C 89.760 30.955,89.237 31.005,89.038 30.888 C 88.839 30.772,88.794 30.867,88.938 31.099 C 89.085 31.338,88.676 31.705,88.000 31.940 C 87.340 32.170,86.800 32.638,86.800 32.979 C 86.800 33.321,86.480 33.600,86.089 33.600 C 85.698 33.600,85.070 33.960,84.693 34.400 C 84.316 34.840,83.629 35.200,83.166 35.200 C 82.662 35.200,82.241 35.520,82.116 36.000 C 82.000 36.443,81.570 36.800,81.153 36.800 C 80.667 36.800,80.400 37.083,80.400 37.600 C 80.400 38.218,80.133 38.400,79.227 38.400 C 78.428 38.400,77.977 38.641,77.814 39.157 C 77.682 39.573,77.219 40.006,76.787 40.119 C 76.354 40.233,76.000 40.612,76.000 40.963 C 76.000 41.313,75.738 41.600,75.418 41.600 C 74.642 41.600,71.774 43.582,71.898 44.032 C 71.951 44.227,71.548 44.498,71.000 44.636 C 70.453 44.773,70.095 45.031,70.205 45.208 C 70.315 45.386,69.864 45.770,69.202 46.063 C 68.541 46.356,68.000 46.821,68.000 47.098 C 68.000 47.374,67.713 47.600,67.363 47.600 C 67.012 47.600,66.635 47.943,66.526 48.363 C 66.416 48.783,65.983 49.216,65.563 49.326 C 65.143 49.435,64.800 49.812,64.800 50.163 C 64.800 50.513,64.544 50.800,64.232 50.800 C 63.392 50.800,59.948 54.386,60.262 54.934 C 60.408 55.190,60.385 55.271,60.211 55.113 C 59.739 54.687,57.200 57.393,57.200 58.323 C 57.200 58.918,57.001 59.073,56.428 58.923 C 55.577 58.701,50.800 63.216,50.800 64.243 C 50.800 64.549,50.513 64.800,50.163 64.800 C 49.812 64.800,49.435 65.143,49.326 65.563 C 49.216 65.983,48.783 66.416,48.363 66.526 C 47.943 66.635,47.600 67.012,47.600 67.363 C 47.600 67.713,47.374 68.000,47.098 68.000 C 46.821 68.000,46.356 68.541,46.063 69.202 C 45.770 69.864,45.366 70.303,45.165 70.179 C 44.964 70.054,44.800 70.202,44.800 70.507 C 44.800 70.811,44.356 71.478,43.812 71.988 C 43.269 72.499,42.938 73.115,43.076 73.358 C 43.215 73.601,43.181 73.667,43.001 73.503 C 42.492 73.043,41.600 73.997,41.600 75.002 C 41.600 75.570,41.302 75.985,40.800 76.116 C 40.360 76.231,40.000 76.600,40.000 76.936 C 40.000 77.271,39.640 77.660,39.200 77.800 C 38.640 77.978,38.400 78.405,38.400 79.227 C 38.400 80.133,38.218 80.400,37.600 80.400 C 37.083 80.400,36.800 80.667,36.800 81.153 C 36.800 81.570,36.443 82.000,36.000 82.116 C 35.520 82.241,35.200 82.662,35.200 83.166 C 35.200 83.629,34.840 84.316,34.400 84.693 C 33.960 85.070,33.600 85.686,33.600 86.062 C 33.600 86.438,33.258 86.855,32.840 86.987 C 32.422 87.120,31.966 87.680,31.828 88.231 C 31.676 88.836,31.398 89.122,31.126 88.955 C 30.862 88.791,30.787 88.855,30.945 89.111 C 31.092 89.349,31.030 89.658,30.807 89.796 C 30.583 89.934,30.400 90.397,30.400 90.824 C 30.400 91.253,30.127 91.600,29.790 91.600 C 29.431 91.600,29.080 92.099,28.937 92.814 C 28.804 93.482,28.358 94.208,27.947 94.428 C 27.536 94.648,27.200 95.033,27.200 95.283 C 27.200 95.533,26.898 96.070,26.530 96.478 C 26.057 97.000,25.876 97.857,25.916 99.384 C 25.967 101.336,25.896 101.534,25.187 101.397 C 24.698 101.303,24.400 101.465,24.400 101.823 C 24.400 102.140,24.040 102.400,23.600 102.400 C 22.978 102.400,22.800 102.667,22.800 103.597 C 22.800 104.360,22.510 104.974,22.000 105.293 C 21.560 105.568,21.200 106.109,21.200 106.496 C 21.200 106.883,20.840 107.560,20.400 108.000 C 19.960 108.440,19.600 109.261,19.600 109.824 C 19.600 110.387,19.429 110.742,19.220 110.612 C 18.752 110.323,18.000 111.654,18.000 112.774 C 18.000 113.255,17.740 113.600,17.376 113.600 C 17.033 113.600,16.856 113.768,16.983 113.972 C 17.109 114.177,17.030 114.458,16.807 114.596 C 16.583 114.734,16.400 115.213,16.400 115.661 C 16.400 116.108,16.040 116.931,15.600 117.491 C 15.160 118.050,14.800 119.114,14.800 119.854 C 14.800 120.738,14.609 121.200,14.243 121.200 C 13.595 121.200,13.200 122.053,13.200 123.449 C 13.200 123.991,12.836 124.825,12.390 125.303 C 11.945 125.781,11.665 126.393,11.769 126.663 C 11.872 126.933,11.800 127.702,11.608 128.372 C 11.397 129.107,11.408 129.682,11.636 129.822 C 12.208 130.176,11.655 130.800,10.769 130.800 C 10.140 130.800,10.033 130.991,10.227 131.765 C 10.390 132.416,10.230 132.970,9.735 133.467 C 9.331 133.871,8.937 134.829,8.860 135.596 C 8.783 136.362,8.378 137.469,7.960 138.056 C 7.539 138.647,7.200 139.791,7.200 140.618 C 7.200 141.547,6.949 142.295,6.538 142.596 C 5.848 143.100,5.689 143.826,5.633 146.724 C 5.614 147.702,5.436 148.346,5.220 148.212 C 4.585 147.820,4.000 149.431,4.000 151.574 C 4.000 153.018,3.786 153.814,3.254 154.346 C 2.659 154.941,2.493 155.770,2.436 158.440 C 2.383 160.921,2.212 161.873,1.774 162.119 C 1.449 162.300,1.280 162.606,1.398 162.797 C 1.516 162.988,1.451 163.245,1.253 163.367 C 1.056 163.489,0.865 165.437,0.831 167.695 C 0.796 169.953,0.595 171.860,0.384 171.933 C -0.135 172.114,-0.139 227.885,0.380 228.067 C 0.589 228.140,0.790 230.000,0.826 232.200 C 0.862 234.400,1.036 236.380,1.212 236.600 C 1.388 236.820,1.592 237.180,1.666 237.400 C 1.740 237.620,1.935 237.755,2.100 237.700 C 2.344 237.619,2.630 242.987,2.442 244.116 C 2.339 244.732,3.246 246.019,3.620 245.788 C 3.845 245.649,4.000 246.599,4.000 248.114 C 4.000 250.168,4.159 250.820,4.800 251.400 C 5.410 251.952,5.600 252.632,5.600 254.262 C 5.600 255.500,5.778 256.400,6.024 256.400 C 6.257 256.400,6.343 256.569,6.215 256.775 C 6.088 256.982,6.247 257.299,6.570 257.479 C 6.911 257.670,7.198 258.517,7.256 259.504 C 7.311 260.437,7.456 261.201,7.578 261.203 C 7.998 261.209,8.800 263.361,8.800 264.480 C 8.800 265.096,9.176 265.976,9.635 266.435 C 10.210 267.010,10.396 267.562,10.233 268.210 C 10.103 268.728,10.178 269.263,10.399 269.399 C 10.619 269.536,10.800 269.277,10.800 268.824 C 10.800 267.945,11.558 267.660,11.661 268.500 C 11.695 268.775,11.740 270.170,11.761 271.600 C 11.794 273.817,11.903 274.192,12.500 274.144 C 13.078 274.099,13.200 274.427,13.200 276.030 C 13.200 277.562,13.369 278.062,14.000 278.400 C 14.554 278.697,14.800 279.238,14.800 280.160 C 14.800 280.893,15.160 281.950,15.600 282.509 C 16.040 283.069,16.400 283.892,16.400 284.339 C 16.400 284.787,16.583 285.266,16.807 285.404 C 17.030 285.542,17.107 285.827,16.977 286.038 C 16.847 286.248,16.969 286.370,17.248 286.310 C 17.527 286.249,17.856 286.692,17.978 287.293 C 18.100 287.894,18.515 288.751,18.900 289.197 C 19.285 289.644,19.600 290.277,19.600 290.605 C 19.600 290.932,19.960 291.560,20.400 292.000 C 20.840 292.440,21.200 293.117,21.200 293.504 C 21.200 293.891,21.560 294.432,22.000 294.707 C 22.510 295.026,22.800 295.640,22.800 296.403 C 22.800 297.333,22.978 297.600,23.600 297.600 C 24.040 297.600,24.400 297.780,24.400 298.000 C 24.400 298.220,24.784 298.400,25.252 298.400 C 26.006 298.400,26.078 298.565,25.874 299.823 C 25.583 301.617,25.877 302.400,26.843 302.400 C 27.259 302.400,27.600 302.592,27.600 302.827 C 27.600 303.072,27.259 303.146,26.800 303.000 C 25.880 302.708,25.695 303.397,26.600 303.745 C 26.930 303.871,27.200 304.244,27.200 304.573 C 27.200 304.903,27.560 305.365,28.000 305.600 C 28.458 305.845,28.800 306.438,28.800 306.987 C 28.800 307.595,29.093 308.039,29.600 308.200 C 30.040 308.340,30.400 308.791,30.400 309.203 C 30.400 309.616,30.583 310.066,30.807 310.204 C 31.030 310.342,31.109 310.623,30.983 310.828 C 30.856 311.032,31.014 311.200,31.333 311.200 C 31.652 311.200,32.026 311.650,32.164 312.200 C 32.302 312.750,32.682 313.200,33.008 313.200 C 33.333 313.200,33.600 313.517,33.600 313.904 C 33.600 314.291,33.960 314.832,34.400 315.107 C 34.840 315.382,35.200 315.929,35.200 316.323 C 35.200 317.349,35.992 318.000,37.240 318.000 C 38.201 318.000,38.320 318.149,38.320 319.359 C 38.320 321.231,38.745 322.400,39.427 322.400 C 39.742 322.400,40.000 322.740,40.000 323.157 C 40.000 323.982,41.501 324.566,42.568 324.157 C 43.050 323.972,43.200 324.177,43.200 325.019 C 43.200 326.099,43.182 326.107,42.400 325.400 C 40.713 323.873,41.599 325.833,43.392 327.592 C 44.377 328.559,45.098 329.435,44.994 329.539 C 44.890 329.643,45.164 329.980,45.603 330.287 C 46.041 330.594,46.400 331.124,46.400 331.465 C 46.400 331.852,46.626 331.999,47.000 331.855 C 47.546 331.646,47.790 332.060,47.636 332.934 C 47.604 333.118,47.942 333.364,48.389 333.481 C 48.835 333.598,49.200 333.959,49.200 334.284 C 49.200 334.609,49.560 334.969,50.000 335.084 C 50.440 335.199,50.800 335.518,50.800 335.794 C 50.800 336.721,55.877 341.622,56.564 341.358 C 56.992 341.194,57.200 341.338,57.200 341.797 C 57.200 342.608,59.771 345.295,60.168 344.899 C 60.319 344.748,60.336 344.900,60.207 345.237 C 60.056 345.632,60.332 346.043,60.985 346.392 C 61.543 346.690,61.928 347.005,61.842 347.092 C 61.561 347.373,63.620 349.200,64.218 349.200 C 64.538 349.200,64.800 349.487,64.800 349.837 C 64.800 350.188,65.160 350.569,65.600 350.684 C 66.040 350.799,66.400 351.113,66.400 351.382 C 66.400 351.651,66.860 352.081,67.423 352.337 C 67.985 352.594,68.334 352.983,68.199 353.202 C 68.064 353.421,68.223 353.600,68.554 353.600 C 68.884 353.600,69.406 353.959,69.713 354.397 C 70.020 354.836,70.376 355.090,70.504 354.963 C 70.632 354.835,71.045 355.202,71.422 355.778 C 71.800 356.354,72.193 356.740,72.297 356.636 C 72.401 356.532,72.960 356.887,73.539 357.424 C 74.118 357.961,74.909 358.400,75.296 358.400 C 75.733 358.400,76.000 358.703,76.000 359.200 C 76.000 359.717,76.267 360.000,76.753 360.000 C 77.170 360.000,77.600 360.357,77.716 360.800 C 77.868 361.383,78.262 361.600,79.163 361.600 C 80.133 361.600,80.400 361.772,80.400 362.400 C 80.400 362.917,80.667 363.200,81.153 363.200 C 81.570 363.200,82.000 363.557,82.116 364.000 C 82.257 364.540,82.662 364.800,83.359 364.800 C 83.960 364.800,84.603 365.135,84.893 365.600 C 85.168 366.040,85.613 366.400,85.883 366.400 C 86.153 366.400,87.007 367.034,87.783 367.809 C 88.558 368.584,89.734 369.327,90.396 369.459 C 91.058 369.592,91.600 369.926,91.600 370.201 C 91.600 370.477,92.140 370.927,92.800 371.200 C 93.460 371.473,94.000 371.866,94.000 372.072 C 94.000 372.278,94.157 372.350,94.350 372.231 C 94.542 372.112,95.190 372.470,95.790 373.026 C 96.389 373.581,97.402 374.140,98.040 374.268 C 98.678 374.396,99.200 374.748,99.200 375.050 C 99.200 375.456,99.830 375.600,101.600 375.600 C 103.433 375.600,104.000 375.737,104.000 376.182 C 104.000 376.502,104.464 377.228,105.031 377.795 C 105.929 378.693,106.029 378.721,105.804 378.013 C 105.602 377.375,105.724 377.200,106.373 377.200 C 106.933 377.200,107.200 377.458,107.200 378.000 C 107.200 379.117,108.602 380.400,109.824 380.400 C 110.387 380.400,110.753 380.553,110.637 380.740 C 110.408 381.111,111.730 381.874,113.000 382.103 C 113.440 382.183,113.751 382.475,113.690 382.753 C 113.630 383.032,113.752 383.153,113.962 383.023 C 114.173 382.893,114.458 382.970,114.596 383.193 C 114.734 383.417,115.213 383.600,115.661 383.600 C 116.108 383.600,116.931 383.960,117.491 384.400 C 118.849 385.468,120.400 385.468,120.400 384.400 C 120.400 383.960,120.580 383.600,120.800 383.600 C 121.020 383.600,121.200 384.211,121.200 384.957 C 121.200 386.516,121.661 386.800,124.186 386.800 C 125.592 386.800,125.946 386.952,126.124 387.631 C 126.315 388.361,126.601 388.448,128.471 388.348 C 130.438 388.242,130.610 388.305,130.735 389.170 C 130.863 390.064,130.977 390.095,133.216 389.861 C 135.629 389.609,136.449 389.977,135.641 390.951 C 135.330 391.325,135.350 391.467,135.714 391.467 C 135.989 391.467,136.695 391.587,137.283 391.735 C 137.873 391.883,138.462 391.823,138.599 391.601 C 139.104 390.784,140.912 391.130,140.684 392.000 C 140.529 392.593,140.672 392.800,141.237 392.800 C 141.657 392.800,142.360 393.160,142.800 393.600 C 143.424 394.224,144.133 394.400,146.024 394.400 C 147.357 394.400,148.352 394.554,148.236 394.742 C 147.880 395.318,149.930 396.000,152.019 396.000 L 154.000 396.000 154.000 394.597 C 154.000 393.067,155.054 385.646,155.399 384.747 C 155.517 384.440,155.868 382.571,156.179 380.594 C 157.786 370.397,158.712 364.759,160.203 356.100 C 160.844 352.374,161.311 349.518,162.019 345.000 C 162.260 343.460,162.712 340.850,163.023 339.200 C 163.547 336.421,165.229 326.196,166.641 317.200 C 167.320 312.874,168.575 305.623,169.409 301.200 C 169.720 299.550,170.726 293.610,171.645 288.000 C 172.564 282.390,173.557 276.360,173.852 274.600 C 174.147 272.840,174.559 270.131,174.766 268.580 C 174.973 267.029,175.429 264.239,175.779 262.380 C 181.131 233.934,181.131 233.964,176.532 224.076 C 175.579 222.028,174.800 220.129,174.800 219.856 C 174.800 219.583,174.638 219.189,174.441 218.980 C 174.243 218.771,173.231 216.620,172.192 214.200 C 169.887 208.834,168.946 206.687,167.986 204.600 C 167.026 202.515,160.347 187.201,158.972 183.932 C 158.385 182.539,157.278 180.050,156.511 178.400 C 155.744 176.750,154.307 173.510,153.317 171.200 C 152.327 168.890,151.175 166.291,150.758 165.425 C 150.341 164.559,150.000 163.713,150.000 163.546 C 150.000 163.379,149.379 161.928,148.620 160.321 C 147.861 158.715,144.964 152.180,142.183 145.800 C 139.401 139.420,136.625 133.120,136.013 131.800 C 135.401 130.480,133.803 126.842,132.461 123.715 C 131.119 120.588,127.047 111.291,123.411 103.054 C 119.775 94.818,116.800 87.985,116.800 87.871 C 116.800 87.758,115.810 85.573,114.600 83.018 C 113.390 80.462,112.400 78.237,112.400 78.072 C 112.400 77.908,111.436 75.619,110.259 72.987 C 109.081 70.354,106.908 65.410,105.431 62.000 C 103.953 58.590,102.561 55.462,102.337 55.050 C 102.114 54.637,100.171 50.227,98.021 45.250 C 93.494 34.769,91.482 30.398,91.200 30.432 C 91.090 30.445,90.640 30.601,90.200 30.778 M24.400 103.467 C 24.400 103.760,24.160 104.000,23.867 104.000 C 23.573 104.000,23.333 103.760,23.333 103.467 C 23.333 103.173,23.573 102.933,23.867 102.933 C 24.160 102.933,24.400 103.173,24.400 103.467 M10.263 135.470 C 9.851 135.883,9.239 135.163,9.477 134.543 C 9.693 133.980,9.759 133.984,10.096 134.586 C 10.304 134.957,10.379 135.355,10.263 135.470 M102.337 169.137 C 102.918 169.718,103.133 170.780,103.351 174.155 C 103.503 176.510,103.806 179.373,104.024 180.518 C 104.243 181.663,104.594 184.580,104.804 187.000 C 105.015 189.420,105.460 193.560,105.792 196.200 C 106.124 198.840,106.570 203.284,106.782 206.075 C 106.994 208.866,107.436 211.791,107.764 212.575 L 108.359 214.000 130.731 214.000 C 154.877 214.000,154.235 213.943,153.931 216.068 C 153.859 216.570,153.440 217.164,153.000 217.390 C 152.560 217.615,151.210 218.432,150.000 219.205 C 147.322 220.915,147.147 221.021,142.400 223.824 C 140.310 225.058,137.340 226.855,135.800 227.818 C 134.260 228.781,131.862 230.251,130.471 231.084 C 126.914 233.216,126.909 233.219,123.800 235.125 C 122.260 236.069,120.640 237.055,120.200 237.317 C 119.760 237.578,118.191 238.559,116.713 239.496 C 115.235 240.433,113.871 241.200,113.683 241.200 C 112.105 241.200,111.479 243.160,111.930 246.689 C 112.176 248.620,112.572 252.540,112.808 255.400 C 113.045 258.260,113.490 262.310,113.797 264.400 C 114.104 266.490,114.452 269.844,114.570 271.854 C 114.688 273.864,114.982 276.024,115.223 276.654 C 115.927 278.494,116.218 286.256,115.610 286.988 C 114.787 287.979,113.599 287.700,111.836 286.100 C 110.926 285.275,109.033 283.610,107.628 282.400 C 102.853 278.287,101.369 277.003,98.614 274.600 C 94.497 271.010,93.838 270.441,93.400 270.105 C 93.180 269.936,91.380 268.379,89.400 266.645 C 87.420 264.911,85.307 263.067,84.703 262.546 C 83.221 261.267,80.357 261.777,78.800 263.598 C 78.399 264.068,72.816 267.600,72.475 267.600 C 72.282 267.600,71.798 267.960,71.400 268.400 C 71.002 268.840,70.545 269.200,70.385 269.200 C 70.225 269.200,68.092 270.505,65.645 272.100 C 63.198 273.695,59.892 275.832,58.298 276.850 C 56.704 277.867,53.780 279.734,51.800 280.998 C 49.820 282.262,47.174 283.995,45.920 284.848 C 44.665 285.702,43.472 286.400,43.269 286.400 C 43.065 286.400,42.674 286.670,42.400 287.000 C 41.802 287.721,40.345 287.785,39.680 287.120 C 38.933 286.373,39.103 285.399,40.354 283.278 C 40.988 282.202,41.640 280.889,41.803 280.361 C 41.965 279.832,42.246 279.214,42.426 278.987 C 42.819 278.492,46.290 271.870,48.499 267.400 C 49.369 265.640,50.247 263.881,50.449 263.492 C 51.081 262.276,56.394 252.011,58.787 247.385 C 60.117 244.812,60.972 242.697,60.835 242.317 C 60.706 241.958,56.730 238.580,52.000 234.811 C 47.270 231.042,42.590 227.288,41.600 226.469 C 40.610 225.650,38.540 224.002,37.000 222.808 C 29.792 217.218,28.680 215.880,30.080 214.480 C 30.442 214.118,36.136 214.000,53.253 214.000 L 75.946 214.000 76.722 212.900 C 77.149 212.295,77.986 210.810,78.582 209.600 C 79.178 208.390,79.822 207.130,80.013 206.800 C 80.204 206.470,81.512 203.950,82.919 201.200 C 84.326 198.450,87.103 193.050,89.089 189.200 C 91.076 185.350,94.089 179.500,95.785 176.200 C 99.799 168.389,100.660 167.460,102.337 169.137 M10.400 265.176 C 10.400 265.847,9.691 266.013,9.454 265.398 C 9.315 265.035,9.456 264.800,9.813 264.800 C 10.136 264.800,10.400 264.969,10.400 265.176 M152.545 395.000 C 152.418 395.330,152.154 395.600,151.957 395.600 C 151.761 395.600,151.600 395.330,151.600 395.000 C 151.600 394.670,151.864 394.400,152.187 394.400 C 152.545 394.400,152.685 394.635,152.545 395.000 " stroke="none" fill="#2424cb" fill-rule="evenodd"></path><path id="path1" d="M172.000 0.400 C 172.000 0.642,170.292 0.800,167.676 0.800 C 163.520 0.800,160.660 1.576,162.300 2.258 C 162.575 2.373,162.800 2.727,162.800 3.045 C 162.800 3.573,164.028 6.789,165.379 9.800 C 165.675 10.460,166.318 11.990,166.807 13.200 C 167.296 14.410,168.011 16.120,168.396 17.000 C 168.781 17.880,169.499 19.680,169.991 21.000 C 170.483 22.320,171.128 23.940,171.424 24.600 C 172.679 27.396,175.200 33.519,175.200 33.771 C 175.200 33.921,175.544 34.799,175.964 35.722 C 176.384 36.645,177.561 39.470,178.579 42.000 C 179.597 44.530,180.674 47.140,180.973 47.800 C 181.273 48.460,181.875 49.900,182.312 51.000 C 183.950 55.124,184.899 57.436,185.431 58.600 C 185.733 59.260,186.956 62.230,188.149 65.200 C 190.683 71.508,191.440 73.339,192.225 75.060 C 192.541 75.754,192.800 76.504,192.800 76.728 C 192.800 76.952,193.067 77.645,193.394 78.268 C 194.194 79.794,196.000 83.961,196.000 84.280 C 196.000 84.657,198.040 89.731,198.380 90.200 C 198.539 90.420,199.088 91.770,199.598 93.200 C 200.109 94.630,200.766 96.250,201.059 96.800 C 201.352 97.350,202.773 100.770,204.218 104.400 C 205.663 108.030,207.195 111.732,207.622 112.626 C 208.050 113.521,208.400 114.428,208.400 114.642 C 208.400 114.856,208.760 115.737,209.200 116.600 C 209.640 117.463,210.000 118.455,210.000 118.805 C 210.000 119.154,210.162 119.611,210.359 119.820 C 210.557 120.029,211.210 121.460,211.811 123.000 C 212.412 124.540,213.266 126.610,213.708 127.600 C 214.150 128.590,215.221 131.200,216.088 133.400 C 216.954 135.600,218.385 139.110,219.268 141.200 C 220.150 143.290,221.157 145.720,221.506 146.600 C 221.855 147.480,222.527 149.100,223.001 150.200 C 223.474 151.300,224.275 153.280,224.782 154.600 C 225.932 157.601,227.066 160.262,227.820 161.732 C 228.139 162.355,228.401 163.075,228.402 163.332 C 228.404 163.590,228.654 164.278,228.959 164.861 C 229.263 165.445,229.721 166.555,229.976 167.329 C 231.868 173.060,232.520 173.200,235.642 168.546 C 240.225 161.713,246.215 152.589,246.364 152.213 C 246.455 151.986,247.220 150.863,248.064 149.717 C 248.909 148.571,249.600 147.553,249.600 147.454 C 249.600 147.291,254.367 139.959,255.096 139.000 C 255.263 138.780,255.860 137.880,256.423 137.000 C 259.270 132.545,261.425 129.386,261.697 129.267 C 261.864 129.193,262.000 128.962,262.000 128.752 C 262.000 128.542,264.581 124.462,267.736 119.685 C 275.943 107.258,284.366 94.461,289.513 86.600 C 291.962 82.860,294.121 79.617,294.311 79.394 C 294.501 79.170,295.175 78.090,295.809 76.994 C 296.443 75.897,297.062 74.910,297.184 74.800 C 297.478 74.536,303.754 65.109,303.959 64.624 C 304.046 64.417,305.144 62.707,306.398 60.824 C 307.653 58.941,311.030 53.800,313.904 49.400 C 316.777 45.000,319.504 40.989,319.964 40.486 C 320.941 39.418,321.056 38.400,320.200 38.400 C 319.867 38.400,319.600 38.044,319.600 37.600 C 319.600 37.083,319.333 36.800,318.847 36.800 C 318.430 36.800,318.000 36.443,317.884 36.000 C 317.769 35.560,317.388 35.200,317.037 35.200 C 316.687 35.200,316.040 34.840,315.600 34.400 C 315.160 33.960,314.440 33.600,314.000 33.600 C 313.467 33.600,313.200 33.333,313.200 32.800 C 313.200 32.282,312.933 32.000,312.443 32.000 C 312.026 32.000,311.586 31.740,311.464 31.422 C 311.342 31.104,310.609 30.725,309.835 30.580 C 308.957 30.415,308.337 30.031,308.187 29.558 C 308.054 29.141,307.707 28.800,307.416 28.800 C 307.124 28.800,306.791 28.553,306.675 28.251 C 306.559 27.950,305.957 27.576,305.336 27.420 C 304.716 27.264,304.098 26.959,303.964 26.742 C 303.830 26.525,303.468 26.287,303.160 26.215 C 301.496 25.821,300.800 25.449,300.800 24.953 C 300.800 24.574,300.296 24.400,299.200 24.400 C 297.867 24.400,297.600 24.267,297.600 23.600 C 297.600 22.978,297.333 22.800,296.403 22.800 C 295.640 22.800,295.026 22.510,294.707 22.000 C 294.432 21.560,293.934 21.200,293.600 21.200 C 293.266 21.200,292.768 20.840,292.493 20.400 C 292.174 19.890,291.560 19.600,290.797 19.600 C 290.040 19.600,289.600 19.395,289.600 19.043 C 289.600 18.398,288.748 18.000,287.367 18.000 C 286.807 18.000,286.400 17.765,286.400 17.443 C 286.400 16.808,285.551 16.400,284.229 16.400 C 283.731 16.400,282.998 16.040,282.600 15.600 C 282.202 15.160,281.392 14.800,280.800 14.800 C 280.208 14.800,279.423 14.467,279.055 14.061 C 278.687 13.654,277.817 13.305,277.123 13.285 C 276.425 13.266,275.703 12.970,275.510 12.625 C 275.318 12.281,274.944 12.003,274.680 12.006 C 274.386 12.010,274.433 12.163,274.800 12.400 C 275.220 12.671,275.246 12.790,274.887 12.794 C 274.606 12.797,274.271 12.530,274.145 12.200 C 273.989 11.794,273.352 11.600,272.170 11.600 C 270.707 11.600,270.466 11.493,270.681 10.934 C 270.857 10.476,270.785 10.362,270.450 10.569 C 270.183 10.734,269.712 10.659,269.404 10.403 C 269.095 10.147,268.428 9.971,267.921 10.013 C 266.359 10.141,265.940 10.021,266.242 9.532 C 266.436 9.217,266.313 9.148,265.866 9.319 C 265.500 9.460,265.200 9.401,265.200 9.187 C 265.200 8.974,264.795 8.799,264.300 8.799 C 263.805 8.798,262.811 8.438,262.090 7.999 C 261.370 7.559,260.108 7.200,259.287 7.200 C 258.226 7.200,257.648 6.968,257.293 6.400 C 256.884 5.745,256.360 5.600,254.397 5.600 C 252.615 5.600,252.000 5.457,252.000 5.043 C 252.000 4.265,251.100 4.000,248.464 4.000 C 246.626 4.000,246.097 3.847,245.693 3.200 C 245.257 2.502,244.760 2.400,241.797 2.400 C 238.933 2.400,238.274 2.274,237.600 1.600 C 236.897 0.897,236.267 0.800,232.400 0.800 C 229.733 0.800,228.000 0.642,228.000 0.400 C 228.000 0.137,218.400 0.000,200.000 0.000 C 181.600 0.000,172.000 0.137,172.000 0.400 M372.892 96.875 C 373.091 97.473,374.000 97.802,374.000 97.276 C 374.000 97.061,373.715 96.776,373.367 96.643 C 372.977 96.493,372.794 96.582,372.892 96.875 M99.767 171.900 C 98.874 173.254,98.016 174.871,92.813 185.000 C 90.553 189.400,87.213 195.880,85.390 199.400 C 83.567 202.920,81.157 207.600,80.035 209.800 C 78.912 212.000,77.535 214.205,76.975 214.700 L 75.955 215.600 54.001 215.600 C 39.083 215.600,31.964 215.735,31.787 216.021 C 31.507 216.474,32.727 217.728,35.641 219.978 C 37.408 221.342,45.198 227.563,56.900 236.953 C 62.975 241.827,63.182 242.184,61.592 245.015 C 60.860 246.317,58.506 250.892,47.601 272.200 C 45.687 275.940,43.583 279.990,42.927 281.200 C 40.792 285.134,41.165 286.358,43.916 284.447 C 45.860 283.096,51.790 279.305,52.200 279.151 C 52.420 279.068,54.490 277.758,56.800 276.239 C 61.868 272.907,66.369 269.988,70.400 267.419 C 72.050 266.367,74.441 264.808,75.713 263.953 C 76.984 263.099,78.100 262.400,78.193 262.400 C 78.285 262.400,79.160 261.860,80.138 261.200 C 82.799 259.404,83.963 259.758,88.025 263.600 C 88.374 263.930,89.717 265.100,91.009 266.200 C 92.302 267.300,93.646 268.470,93.995 268.800 C 94.345 269.130,95.344 270.012,96.215 270.760 C 100.200 274.180,102.799 276.435,106.174 279.400 C 114.083 286.348,115.183 286.904,114.659 283.693 C 114.525 282.872,114.224 280.310,113.991 278.000 C 113.757 275.690,113.314 271.910,113.006 269.600 C 112.698 267.290,112.338 263.870,112.205 262.000 C 112.072 260.130,111.787 257.610,111.572 256.400 C 110.739 251.727,110.056 243.115,110.449 242.252 C 110.663 241.782,112.405 240.435,114.319 239.259 C 119.772 235.909,129.024 230.282,130.528 229.400 C 134.988 226.786,137.849 225.066,143.800 221.420 C 151.011 217.001,151.574 216.618,151.451 216.200 C 151.376 215.943,143.531 215.729,129.481 215.600 C 103.788 215.365,106.597 216.127,105.803 209.171 C 105.491 206.437,105.045 202.580,104.811 200.600 C 104.359 196.768,103.482 188.778,102.793 182.200 C 101.592 170.747,101.264 169.630,99.767 171.900 M390.449 265.970 C 390.159 266.149,389.992 266.634,390.078 267.048 C 390.220 267.730,390.283 267.713,390.750 266.866 C 391.332 265.809,391.225 265.490,390.449 265.970 M375.708 298.372 C 375.740 298.797,375.909 299.056,376.083 298.949 C 376.527 298.675,376.480 297.600,376.025 297.600 C 375.819 297.600,375.676 297.948,375.708 298.372 " stroke="none" fill="#f8f8fa" fill-rule="evenodd"></path><path id="path2" d="M361.600 80.338 C 361.600 80.812,361.225 81.575,360.768 82.032 C 360.310 82.490,358.383 85.145,356.486 87.932 C 354.589 90.720,351.195 95.700,348.943 99.000 C 346.692 102.300,342.957 107.790,340.643 111.200 C 338.329 114.610,333.990 121.000,330.999 125.400 C 328.009 129.800,323.128 137.000,320.154 141.400 C 317.179 145.800,312.909 152.100,310.665 155.400 C 301.818 168.408,296.952 175.557,294.598 179.000 C 293.244 180.980,290.247 185.390,287.938 188.800 C 282.150 197.348,274.212 209.036,269.331 216.200 C 254.148 238.480,255.374 236.254,254.175 243.718 C 253.140 250.165,251.931 257.322,250.985 262.600 C 250.670 264.360,249.865 269.220,249.196 273.400 C 248.528 277.580,247.732 282.440,247.427 284.200 C 247.123 285.960,246.578 289.290,246.217 291.600 C 245.856 293.910,245.280 297.240,244.937 299.000 C 244.595 300.760,244.168 303.190,243.989 304.400 C 243.809 305.610,243.199 309.390,242.631 312.800 C 242.064 316.210,241.323 320.710,240.985 322.800 C 240.646 324.890,240.116 328.040,239.806 329.800 C 239.495 331.560,238.867 335.250,238.409 338.000 C 236.735 348.062,236.297 350.660,235.777 353.600 C 235.486 355.250,234.964 358.490,234.617 360.800 C 234.271 363.110,233.817 365.900,233.609 367.000 C 233.400 368.100,233.042 370.413,232.813 372.141 C 232.584 373.868,232.316 375.413,232.217 375.573 C 232.118 375.733,231.850 377.109,231.622 378.632 C 231.393 380.154,230.939 382.840,230.612 384.600 C 229.840 388.766,228.918 394.455,228.587 397.100 L 228.325 399.200 232.562 399.200 C 236.267 399.200,236.901 399.099,237.600 398.400 C 238.274 397.726,238.933 397.600,241.797 397.600 C 244.760 397.600,245.257 397.498,245.693 396.800 C 246.097 396.153,246.626 396.000,248.464 396.000 C 251.100 396.000,252.000 395.735,252.000 394.957 C 252.000 394.543,252.615 394.400,254.397 394.400 C 256.360 394.400,256.884 394.255,257.293 393.600 C 257.596 393.114,258.226 392.800,258.896 392.800 C 259.733 392.800,260.000 392.607,260.000 392.000 C 260.000 391.101,260.157 391.042,261.139 391.567 C 262.005 392.031,264.583 391.529,264.650 390.884 C 264.678 390.618,264.722 390.265,264.749 390.100 C 264.776 389.935,265.879 389.861,267.199 389.936 C 269.362 390.058,269.600 389.994,269.600 389.288 C 269.600 388.619,269.897 388.498,271.628 388.459 C 273.915 388.407,274.544 388.153,274.255 387.400 C 274.068 386.911,274.827 386.771,277.743 386.760 C 278.152 386.758,278.578 386.406,278.690 385.978 C 278.846 385.383,279.244 385.200,280.385 385.200 C 281.368 385.200,282.123 384.927,282.600 384.400 C 282.998 383.960,283.731 383.600,284.229 383.600 C 285.551 383.600,286.400 383.192,286.400 382.557 C 286.400 382.235,286.807 382.000,287.367 382.000 C 288.748 382.000,289.600 381.602,289.600 380.957 C 289.600 380.605,290.040 380.400,290.797 380.400 C 291.560 380.400,292.174 380.110,292.493 379.600 C 292.768 379.160,293.266 378.800,293.600 378.800 C 293.934 378.800,294.432 378.440,294.707 378.000 C 295.026 377.490,295.640 377.200,296.403 377.200 C 297.333 377.200,297.600 377.022,297.600 376.400 C 297.600 375.733,297.867 375.600,299.200 375.600 C 300.305 375.600,300.800 375.427,300.800 375.040 C 300.800 374.725,301.458 374.316,302.300 374.107 C 303.125 373.902,303.755 373.524,303.700 373.267 C 303.645 373.010,303.930 372.800,304.333 372.800 C 304.737 372.800,305.202 372.665,305.367 372.500 C 305.532 372.335,305.877 372.192,306.133 372.182 C 306.390 372.172,306.555 371.947,306.500 371.682 C 306.445 371.417,306.777 371.200,307.237 371.200 C 307.725 371.200,308.158 370.881,308.274 370.438 C 308.402 369.949,308.971 369.582,309.858 369.416 C 310.619 369.273,311.342 368.896,311.464 368.578 C 311.586 368.260,312.026 368.000,312.443 368.000 C 312.933 368.000,313.200 367.718,313.200 367.200 C 313.200 366.667,313.467 366.400,314.000 366.400 C 314.440 366.400,315.160 366.040,315.600 365.600 C 316.040 365.160,316.760 364.800,317.200 364.800 C 317.733 364.800,318.000 364.533,318.000 364.000 C 318.000 363.467,318.267 363.200,318.800 363.200 C 319.333 363.200,319.600 362.933,319.600 362.400 C 319.600 361.752,319.867 361.600,321.000 361.600 C 322.133 361.600,322.400 361.448,322.400 360.800 C 322.400 360.255,322.667 360.000,323.237 360.000 C 323.738 360.000,324.159 359.679,324.284 359.200 C 324.399 358.760,324.714 358.400,324.985 358.400 C 325.255 358.400,325.802 358.040,326.200 357.600 C 326.598 357.160,327.244 356.800,327.635 356.800 C 328.026 356.800,328.460 356.440,328.600 356.000 C 328.740 355.560,329.117 355.200,329.440 355.200 C 329.762 355.200,330.126 354.937,330.250 354.615 C 330.373 354.294,330.817 353.921,331.237 353.788 C 331.657 353.655,332.000 353.288,332.000 352.973 C 332.000 352.658,332.287 352.400,332.637 352.400 C 332.988 352.400,333.369 352.040,333.484 351.600 C 333.600 351.157,334.030 350.800,334.447 350.800 C 334.933 350.800,335.200 350.517,335.200 350.000 C 335.200 349.560,335.460 349.200,335.778 349.200 C 336.319 349.200,338.159 347.456,341.700 343.588 C 342.525 342.686,343.201 342.186,343.203 342.475 C 343.204 342.764,343.554 342.471,343.980 341.825 C 344.406 341.179,344.664 340.504,344.554 340.325 C 344.443 340.146,344.619 340.000,344.945 340.000 C 345.702 340.000,349.200 336.521,349.200 335.768 C 349.200 335.456,349.560 335.200,350.000 335.200 C 350.533 335.200,350.800 334.933,350.800 334.400 C 350.800 333.935,351.067 333.600,351.437 333.600 C 351.788 333.600,352.169 333.240,352.284 332.800 C 352.399 332.360,352.730 332.000,353.020 332.000 C 353.309 332.000,353.655 331.657,353.788 331.237 C 353.921 330.817,354.294 330.373,354.615 330.250 C 354.937 330.126,355.200 329.781,355.200 329.482 C 355.200 329.184,355.650 328.517,356.200 328.000 C 356.750 327.483,357.200 326.732,357.200 326.330 C 357.200 325.929,357.470 325.600,357.800 325.600 C 358.221 325.600,358.400 325.175,358.400 324.171 C 358.400 322.855,358.451 322.794,359.048 323.390 C 359.404 323.747,359.804 323.930,359.936 323.797 C 360.068 323.665,359.912 323.392,359.588 323.190 C 359.137 322.909,359.304 322.763,360.300 322.562 C 361.458 322.329,361.600 322.153,361.600 320.950 C 361.600 319.867,361.758 319.600,362.400 319.600 C 362.978 319.600,363.200 319.333,363.200 318.637 C 363.200 317.847,363.355 317.715,364.067 317.902 C 364.741 318.078,364.881 317.987,364.692 317.496 C 364.548 317.120,364.845 316.437,365.425 315.811 C 365.961 315.232,366.400 314.408,366.400 313.979 C 366.400 313.467,366.674 313.200,367.200 313.200 C 367.718 313.200,368.000 312.933,368.000 312.443 C 368.000 312.026,368.260 311.586,368.578 311.464 C 368.896 311.342,369.276 310.603,369.422 309.821 C 369.581 308.974,369.922 308.400,370.265 308.400 C 370.582 308.400,371.030 307.860,371.260 307.200 C 371.490 306.540,371.829 306.000,372.012 306.000 C 372.196 306.000,372.474 305.596,372.631 305.102 C 372.788 304.607,373.205 303.983,373.558 303.714 C 374.140 303.271,374.135 303.224,373.500 303.213 C 373.115 303.206,372.800 303.030,372.800 302.823 C 372.800 302.616,373.160 302.515,373.600 302.600 C 374.224 302.720,374.400 302.539,374.400 301.777 C 374.400 301.175,374.630 300.800,375.000 300.800 C 375.444 300.800,375.600 300.333,375.600 299.000 C 375.600 297.467,375.719 297.200,376.400 297.200 C 377.133 297.200,377.490 296.123,377.237 294.670 C 377.206 294.489,377.368 294.456,377.597 294.598 C 377.826 294.739,377.892 295.051,377.745 295.289 C 377.583 295.551,377.663 295.608,377.945 295.434 C 378.202 295.275,378.309 294.977,378.183 294.772 C 378.056 294.568,378.143 294.400,378.376 294.400 C 378.609 294.400,378.800 294.083,378.800 293.696 C 378.800 293.309,379.160 292.768,379.600 292.493 C 380.110 292.174,380.400 291.560,380.400 290.797 C 380.400 290.040,380.605 289.600,380.957 289.600 C 381.602 289.600,382.000 288.748,382.000 287.367 C 382.000 286.807,382.235 286.400,382.557 286.400 C 383.192 286.400,383.600 285.551,383.600 284.229 C 383.600 283.731,383.960 282.998,384.400 282.600 C 384.927 282.123,385.200 281.368,385.200 280.385 C 385.200 279.230,385.380 278.846,386.000 278.684 C 386.677 278.507,386.800 278.138,386.800 276.282 C 386.800 274.439,386.912 274.098,387.500 274.144 C 388.075 274.190,388.236 273.772,388.400 271.800 C 388.564 269.828,388.725 269.410,389.300 269.456 C 389.892 269.503,390.000 269.156,390.000 267.202 C 390.000 265.284,390.126 264.860,390.747 264.698 C 391.571 264.482,392.168 262.070,391.557 261.420 C 390.935 260.757,391.171 260.000,392.000 260.000 C 392.607 260.000,392.800 259.733,392.800 258.896 C 392.800 258.226,393.114 257.596,393.600 257.293 C 394.255 256.884,394.400 256.360,394.400 254.397 C 394.400 252.615,394.543 252.000,394.957 252.000 C 395.735 252.000,396.000 251.100,396.000 248.464 C 396.000 246.626,396.153 246.097,396.800 245.693 C 397.498 245.257,397.600 244.760,397.600 241.797 C 397.600 238.933,397.726 238.274,398.400 237.600 C 399.103 236.897,399.200 236.267,399.200 232.400 C 399.200 229.733,399.358 228.000,399.600 228.000 C 399.863 228.000,400.000 218.400,400.000 200.000 C 400.000 181.600,399.863 172.000,399.600 172.000 C 399.358 172.000,399.200 170.267,399.200 167.600 C 399.200 163.733,399.103 163.103,398.400 162.400 C 397.726 161.726,397.600 161.067,397.600 158.203 C 397.600 155.240,397.498 154.743,396.800 154.307 C 396.153 153.903,396.000 153.374,396.000 151.536 C 396.000 148.900,395.735 148.000,394.957 148.000 C 394.543 148.000,394.400 147.385,394.400 145.603 C 394.400 143.640,394.255 143.116,393.600 142.707 C 393.114 142.404,392.800 141.774,392.800 141.104 C 392.800 140.248,392.611 140.000,391.957 140.000 C 391.353 140.000,391.183 139.821,391.357 139.367 C 391.491 139.019,391.600 138.665,391.600 138.580 C 391.600 138.495,391.915 138.544,392.300 138.690 C 392.967 138.943,392.967 138.922,392.300 138.249 C 391.915 137.861,391.600 137.016,391.600 136.371 C 391.600 135.467,391.418 135.200,390.800 135.200 C 390.103 135.200,389.998 134.929,389.986 133.100 C 389.978 131.938,389.698 130.553,389.358 130.000 C 389.021 129.450,388.842 129.315,388.960 129.700 C 389.078 130.085,389.001 130.400,388.787 130.400 C 388.574 130.400,388.387 129.545,388.372 128.500 C 388.347 126.822,387.700 124.214,387.628 125.500 C 387.535 127.149,386.800 125.607,386.800 123.763 C 386.800 121.862,386.680 121.494,386.000 121.316 C 385.380 121.154,385.200 120.770,385.200 119.615 C 385.200 118.632,384.927 117.877,384.400 117.400 C 383.960 117.002,383.600 116.269,383.600 115.771 C 383.600 114.449,383.192 113.600,382.557 113.600 C 382.235 113.600,382.000 113.193,382.000 112.633 C 382.000 111.252,381.602 110.400,380.957 110.400 C 380.605 110.400,380.400 109.960,380.400 109.203 C 380.400 108.440,380.110 107.826,379.600 107.507 C 379.160 107.232,378.800 106.691,378.800 106.304 C 378.800 105.867,378.497 105.600,378.000 105.600 C 377.333 105.600,377.200 105.333,377.200 104.000 C 377.200 102.667,377.067 102.400,376.400 102.400 C 375.733 102.400,375.600 102.133,375.600 100.800 C 375.600 99.644,375.433 99.200,375.000 99.200 C 374.633 99.200,374.400 98.826,374.400 98.237 C 374.400 97.472,374.236 97.318,373.600 97.484 C 373.029 97.634,372.800 97.496,372.800 97.004 C 372.800 96.521,373.010 96.387,373.500 96.558 C 374.151 96.785,374.153 96.765,373.527 96.276 C 373.156 95.987,372.731 95.264,372.582 94.670 C 372.433 94.076,372.092 93.457,371.825 93.295 C 371.558 93.133,371.224 92.685,371.082 92.300 C 370.941 91.915,370.569 91.600,370.257 91.600 C 369.923 91.600,369.579 91.015,369.422 90.179 C 369.276 89.397,368.896 88.658,368.578 88.536 C 368.260 88.414,368.000 87.974,368.000 87.557 C 368.000 87.067,367.718 86.800,367.200 86.800 C 366.667 86.800,366.400 86.533,366.400 86.000 C 366.400 85.560,366.040 84.840,365.600 84.400 C 365.160 83.960,364.800 83.342,364.800 83.027 C 364.800 82.712,364.440 82.340,364.000 82.200 C 363.560 82.060,363.200 81.716,363.200 81.435 C 363.200 81.154,362.840 80.598,362.400 80.200 C 361.624 79.497,361.600 79.501,361.600 80.338 " stroke="none" fill="#fa042b" fill-rule="evenodd"></path><path id="path3" d="M154.307 3.200 C 153.887 3.874,153.374 4.000,151.066 4.000 C 148.662 4.000,148.299 4.098,148.116 4.800 C 147.937 5.486,147.570 5.600,145.553 5.600 C 143.733 5.600,143.019 5.781,142.400 6.400 C 141.960 6.840,141.257 7.200,140.837 7.200 C 140.272 7.200,140.129 7.407,140.284 8.000 C 140.509 8.862,139.323 9.158,138.580 8.425 C 137.969 7.823,135.200 8.866,135.200 9.698 C 135.200 10.084,134.930 10.400,134.600 10.400 C 133.875 10.400,133.797 9.349,134.500 9.065 C 134.799 8.944,134.718 8.850,134.300 8.832 C 133.915 8.814,133.600 9.070,133.600 9.400 C 133.600 10.083,133.598 10.084,131.299 10.179 C 130.186 10.225,129.417 10.498,129.073 10.968 C 128.772 11.380,127.962 11.719,127.174 11.764 C 126.125 11.823,125.828 12.002,125.918 12.521 C 126.017 13.093,125.681 13.200,123.780 13.200 C 121.862 13.200,121.494 13.319,121.316 14.000 C 121.152 14.627,120.770 14.800,119.553 14.800 C 118.533 14.800,117.725 15.075,117.200 15.600 C 116.760 16.040,116.055 16.400,115.633 16.400 C 114.441 16.400,113.600 16.831,113.600 17.443 C 113.600 17.765,113.193 18.000,112.633 18.000 C 111.252 18.000,110.400 18.398,110.400 19.043 C 110.400 19.365,109.993 19.600,109.433 19.600 C 108.052 19.600,107.200 19.998,107.200 20.643 C 107.200 20.949,106.840 21.200,106.400 21.200 C 105.960 21.200,105.240 21.560,104.800 22.000 C 104.360 22.440,103.640 22.800,103.200 22.800 C 102.667 22.800,102.400 23.067,102.400 23.600 C 102.400 24.267,102.133 24.400,100.800 24.400 C 99.667 24.400,99.200 24.570,99.200 24.982 C 99.200 25.331,98.637 25.669,97.794 25.827 C 97.021 25.972,96.256 26.299,96.094 26.554 C 95.932 26.809,95.350 27.237,94.800 27.506 C 92.562 28.599,89.256 31.087,90.600 30.667 C 91.539 30.373,91.911 31.104,98.021 45.250 C 100.171 50.227,102.114 54.637,102.337 55.050 C 102.561 55.462,103.953 58.590,105.431 62.000 C 106.908 65.410,109.081 70.354,110.259 72.987 C 111.436 75.619,112.400 77.908,112.400 78.072 C 112.400 78.237,113.390 80.462,114.600 83.018 C 115.810 85.573,116.800 87.758,116.800 87.871 C 116.800 87.985,119.775 94.818,123.411 103.054 C 127.047 111.291,131.119 120.588,132.461 123.715 C 133.803 126.842,135.401 130.480,136.013 131.800 C 136.625 133.120,139.401 139.420,142.183 145.800 C 144.964 152.180,147.861 158.715,148.620 160.321 C 149.379 161.928,150.000 163.379,150.000 163.546 C 150.000 163.713,150.341 164.559,150.758 165.425 C 151.175 166.291,152.327 168.890,153.317 171.200 C 154.307 173.510,155.744 176.750,156.511 178.400 C 157.278 180.050,158.385 182.539,158.972 183.932 C 160.347 187.201,167.026 202.515,167.986 204.600 C 168.946 206.687,169.887 208.834,172.192 214.200 C 173.231 216.620,174.243 218.771,174.441 218.980 C 174.638 219.189,174.800 219.583,174.800 219.856 C 174.800 220.129,175.579 222.028,176.532 224.076 C 180.788 233.227,180.732 232.724,178.822 244.800 C 177.636 252.296,177.169 254.994,175.779 262.380 C 175.429 264.239,174.973 267.029,174.766 268.580 C 174.559 270.131,174.147 272.840,173.852 274.600 C 173.557 276.360,172.564 282.390,171.645 288.000 C 170.726 293.610,169.720 299.550,169.409 301.200 C 168.575 305.623,167.320 312.874,166.641 317.200 C 165.229 326.196,163.547 336.421,163.023 339.200 C 162.712 340.850,162.260 343.460,162.019 345.000 C 161.311 349.518,160.844 352.374,160.203 356.100 C 158.712 364.759,157.786 370.397,156.179 380.594 C 155.868 382.571,155.517 384.440,155.399 384.747 C 154.394 387.365,153.726 396.366,154.480 397.120 C 155.008 397.648,160.172 397.802,159.850 397.281 C 159.742 397.105,159.828 396.700,160.043 396.381 C 160.354 395.919,160.410 395.963,160.317 396.600 C 160.234 397.170,160.459 397.437,161.100 397.528 C 161.595 397.598,162.000 397.894,162.000 398.185 C 162.000 399.013,162.966 399.200,167.233 399.200 C 169.611 399.200,171.200 399.360,171.200 399.600 C 171.200 399.863,181.033 400.000,199.900 399.999 L 228.600 399.999 228.650 397.845 C 228.700 395.717,229.542 390.038,230.613 384.600 C 230.917 383.060,231.280 380.900,231.421 379.800 C 231.561 378.700,231.911 376.810,232.198 375.600 C 232.484 374.390,232.832 372.410,232.970 371.200 C 233.108 369.990,233.394 368.100,233.604 367.000 C 233.815 365.900,234.271 363.110,234.617 360.800 C 234.964 358.490,235.486 355.250,235.777 353.600 C 236.297 350.660,236.735 348.062,238.409 338.000 C 238.867 335.250,239.495 331.560,239.806 329.800 C 240.116 328.040,240.646 324.890,240.985 322.800 C 241.323 320.710,242.064 316.210,242.631 312.800 C 243.199 309.390,243.809 305.610,243.989 304.400 C 244.168 303.190,244.595 300.760,244.937 299.000 C 245.280 297.240,245.856 293.910,246.217 291.600 C 246.578 289.290,247.123 285.960,247.427 284.200 C 247.732 282.440,248.528 277.580,249.196 273.400 C 249.865 269.220,250.670 264.360,250.985 262.600 C 251.931 257.322,253.140 250.165,254.175 243.718 C 255.374 236.254,254.148 238.480,269.331 216.200 C 274.212 209.036,282.150 197.348,287.938 188.800 C 290.247 185.390,293.244 180.980,294.598 179.000 C 296.952 175.557,301.818 168.408,310.665 155.400 C 312.909 152.100,317.179 145.800,320.154 141.400 C 323.128 137.000,328.009 129.800,330.999 125.400 C 333.990 121.000,338.329 114.610,340.643 111.200 C 342.957 107.790,346.692 102.300,348.943 99.000 C 351.195 95.700,354.589 90.720,356.486 87.932 C 358.383 85.145,360.310 82.490,360.768 82.032 C 361.364 81.436,361.600 80.690,361.600 79.400 L 361.600 77.600 360.000 77.600 C 358.485 77.600,358.400 77.535,358.400 76.387 C 358.400 75.708,358.150 75.079,357.831 74.957 C 356.800 74.561,356.684 73.513,357.703 73.804 C 358.379 73.998,358.180 73.674,356.900 72.491 C 355.965 71.628,355.200 70.709,355.200 70.448 C 355.200 70.188,354.937 69.874,354.615 69.750 C 354.294 69.627,353.921 69.183,353.788 68.763 C 353.655 68.343,353.309 68.000,353.020 68.000 C 352.730 68.000,352.399 67.640,352.284 67.200 C 352.169 66.760,351.788 66.400,351.437 66.400 C 351.067 66.400,350.800 66.065,350.800 65.600 C 350.800 65.067,350.533 64.800,350.000 64.800 C 349.467 64.800,349.200 64.533,349.200 64.000 C 349.200 63.467,348.933 63.200,348.400 63.200 C 347.859 63.200,347.600 62.933,347.600 62.376 C 347.600 61.923,347.447 61.647,347.260 61.763 C 347.073 61.878,346.673 61.484,346.371 60.886 C 345.553 59.270,343.498 57.209,342.700 57.204 C 342.315 57.202,342.000 57.018,342.000 56.795 C 342.000 56.161,338.059 52.400,337.395 52.400 C 337.067 52.400,336.800 52.041,336.800 51.600 C 336.800 51.067,336.533 50.800,336.000 50.800 C 335.467 50.800,335.200 50.533,335.200 50.000 C 335.200 49.483,334.933 49.200,334.447 49.200 C 334.030 49.200,333.600 48.843,333.484 48.400 C 333.369 47.960,332.988 47.600,332.637 47.600 C 332.287 47.600,332.000 47.342,332.000 47.027 C 332.000 46.712,331.657 46.345,331.237 46.212 C 330.817 46.079,330.373 45.706,330.250 45.385 C 330.126 45.063,329.749 44.800,329.413 44.800 C 329.076 44.800,328.800 44.532,328.800 44.205 C 328.800 43.878,328.215 43.328,327.500 42.983 C 324.894 41.725,324.439 41.415,324.021 40.615 C 323.617 39.840,323.607 39.844,323.825 40.700 C 324.034 41.521,323.914 41.600,322.462 41.600 L 320.870 41.600 316.697 47.900 C 312.946 53.562,309.679 58.528,298.998 74.800 C 297.192 77.550,293.110 83.760,289.925 88.600 C 286.740 93.440,282.423 100.010,280.331 103.200 C 278.240 106.390,273.503 113.590,269.805 119.200 C 266.107 124.810,261.373 132.010,259.283 135.200 C 257.194 138.390,254.277 142.810,252.802 145.022 C 251.326 147.234,250.047 149.214,249.959 149.422 C 249.279 151.036,233.847 173.654,233.184 174.009 C 231.587 174.863,231.212 174.221,226.399 162.400 C 225.279 159.650,223.572 155.510,222.606 153.200 C 220.896 149.111,220.111 147.180,217.810 141.400 C 216.376 137.797,216.359 137.756,214.216 132.811 C 213.217 130.508,212.400 128.486,212.400 128.319 C 212.400 128.151,210.672 123.916,208.561 118.907 C 206.450 113.898,204.357 108.810,203.910 107.600 C 203.463 106.390,202.764 104.653,202.357 103.740 C 201.949 102.826,200.091 98.326,198.226 93.740 C 196.362 89.153,193.647 82.520,192.193 79.000 C 190.740 75.480,188.568 70.170,187.367 67.200 C 186.167 64.230,185.017 61.440,184.814 61.000 C 184.610 60.560,184.056 59.210,183.584 58.000 C 183.112 56.790,182.407 55.080,182.018 54.200 C 181.629 53.320,180.812 51.340,180.202 49.800 C 179.593 48.260,178.866 46.460,178.588 45.800 C 178.311 45.140,177.691 43.610,177.211 42.400 C 176.732 41.190,176.090 39.660,175.786 39.000 C 175.482 38.340,174.051 34.830,172.607 31.200 C 171.163 27.570,169.721 24.060,169.404 23.400 C 169.087 22.740,167.719 19.410,166.365 16.000 C 165.012 12.590,163.566 9.045,163.152 8.122 C 162.738 7.199,162.400 6.164,162.400 5.822 C 162.400 5.480,162.040 4.840,161.600 4.400 C 161.160 3.960,160.800 3.330,160.800 3.000 C 160.800 1.972,154.962 2.151,154.307 3.200 M56.353 57.500 C 56.327 57.665,56.327 57.935,56.353 58.100 C 56.379 58.265,56.190 58.400,55.933 58.400 C 55.677 58.400,55.582 58.516,55.724 58.657 C 56.021 58.955,57.200 58.072,57.200 57.551 C 57.200 57.124,56.419 57.077,56.353 57.500 M344.533 340.611 C 344.533 341.303,345.267 341.200,345.508 340.475 C 345.595 340.214,345.412 340.000,345.100 340.000 C 344.788 340.000,344.533 340.275,344.533 340.611 " stroke="none" fill="#040404" fill-rule="evenodd"></path><path id="path4" d="M160.800 3.000 C 160.800 3.330,161.160 3.960,161.600 4.400 C 162.040 4.840,162.400 5.480,162.400 5.822 C 162.400 6.164,162.738 7.199,163.152 8.122 C 163.566 9.045,165.012 12.590,166.365 16.000 C 167.719 19.410,169.087 22.740,169.404 23.400 C 169.721 24.060,171.163 27.570,172.607 31.200 C 174.051 34.830,175.482 38.340,175.786 39.000 C 176.090 39.660,176.732 41.190,177.211 42.400 C 177.691 43.610,178.311 45.140,178.588 45.800 C 178.866 46.460,179.593 48.260,180.202 49.800 C 180.812 51.340,181.629 53.320,182.018 54.200 C 182.407 55.080,183.112 56.790,183.584 58.000 C 184.056 59.210,184.610 60.560,184.814 61.000 C 185.017 61.440,186.167 64.230,187.367 67.200 C 188.568 70.170,190.740 75.480,192.193 79.000 C 193.647 82.520,196.362 89.153,198.226 93.740 C 200.091 98.326,201.949 102.826,202.357 103.740 C 202.764 104.653,203.463 106.390,203.910 107.600 C 204.357 108.810,206.450 113.898,208.561 118.907 C 210.672 123.916,212.400 128.151,212.400 128.319 C 212.400 128.486,213.217 130.508,214.216 132.811 C 216.359 137.756,216.376 137.797,217.810 141.400 C 220.111 147.180,220.896 149.111,222.606 153.200 C 223.572 155.510,225.279 159.650,226.399 162.400 C 231.212 174.221,231.587 174.863,233.184 174.009 C 233.847 173.654,249.279 151.036,249.959 149.422 C 250.047 149.214,251.326 147.234,252.802 145.022 C 254.277 142.810,257.194 138.390,259.283 135.200 C 261.373 132.010,266.107 124.810,269.805 119.200 C 273.503 113.590,278.240 106.390,280.331 103.200 C 282.423 100.010,286.740 93.440,289.925 88.600 C 293.110 83.760,297.192 77.550,298.998 74.800 C 309.679 58.528,312.946 53.562,316.697 47.900 L 320.870 41.600 322.435 41.600 C 323.296 41.600,323.997 41.465,323.994 41.300 C 323.985 40.857,323.213 39.739,323.206 40.158 C 323.203 40.356,322.711 39.996,322.113 39.358 C 321.174 38.358,321.006 38.298,320.880 38.918 C 320.800 39.313,320.373 40.033,319.931 40.518 C 319.489 41.003,316.777 45.000,313.904 49.400 C 311.030 53.800,307.653 58.941,306.398 60.824 C 305.144 62.707,304.046 64.417,303.959 64.624 C 303.754 65.109,297.478 74.536,297.184 74.800 C 297.062 74.910,296.443 75.897,295.809 76.994 C 295.175 78.090,294.501 79.170,294.311 79.394 C 294.121 79.617,291.962 82.860,289.513 86.600 C 284.366 94.461,275.943 107.258,267.736 119.685 C 264.581 124.462,262.000 128.542,262.000 128.752 C 262.000 128.962,261.864 129.193,261.697 129.267 C 261.425 129.386,259.270 132.545,256.423 137.000 C 255.860 137.880,255.263 138.780,255.096 139.000 C 254.367 139.959,249.600 147.291,249.600 147.454 C 249.600 147.553,248.909 148.571,248.064 149.717 C 247.220 150.863,246.455 151.986,246.364 152.213 C 246.215 152.589,240.225 161.713,235.642 168.546 C 232.520 173.200,231.868 173.060,229.976 167.329 C 229.721 166.555,229.263 165.445,228.959 164.861 C 228.654 164.278,228.404 163.590,228.402 163.332 C 228.401 163.075,228.139 162.355,227.820 161.732 C 227.066 160.262,225.932 157.601,224.782 154.600 C 224.275 153.280,223.474 151.300,223.001 150.200 C 222.527 149.100,221.855 147.480,221.506 146.600 C 221.157 145.720,220.150 143.290,219.268 141.200 C 218.385 139.110,216.954 135.600,216.088 133.400 C 215.221 131.200,214.150 128.590,213.708 127.600 C 213.266 126.610,212.412 124.540,211.811 123.000 C 211.210 121.460,210.557 120.029,210.359 119.820 C 210.162 119.611,210.000 119.154,210.000 118.805 C 210.000 118.455,209.640 117.463,209.200 116.600 C 208.760 115.737,208.400 114.856,208.400 114.642 C 208.400 114.428,208.050 113.521,207.622 112.626 C 207.195 111.732,205.663 108.030,204.218 104.400 C 202.773 100.770,201.352 97.350,201.059 96.800 C 200.766 96.250,200.109 94.630,199.598 93.200 C 199.088 91.770,198.539 90.420,198.380 90.200 C 198.040 89.731,196.000 84.657,196.000 84.280 C 196.000 83.961,194.194 79.794,193.394 78.268 C 193.067 77.645,192.800 76.952,192.800 76.728 C 192.800 76.504,192.541 75.754,192.225 75.060 C 191.440 73.339,190.683 71.508,188.149 65.200 C 186.956 62.230,185.733 59.260,185.431 58.600 C 185.129 57.940,184.525 56.500,184.088 55.400 C 182.481 51.354,181.504 48.971,180.973 47.800 C 180.674 47.140,179.597 44.530,178.579 42.000 C 177.561 39.470,176.384 36.645,175.964 35.722 C 175.544 34.799,175.200 33.921,175.200 33.771 C 175.200 33.519,172.679 27.396,171.424 24.600 C 171.128 23.940,170.483 22.320,169.991 21.000 C 169.499 19.680,168.781 17.880,168.396 17.000 C 168.011 16.120,167.296 14.410,166.807 13.200 C 166.318 11.990,165.675 10.460,165.379 9.800 C 164.001 6.730,162.800 3.568,162.800 3.012 C 162.800 2.626,162.431 2.400,161.800 2.400 C 161.178 2.400,160.800 2.627,160.800 3.000 M138.924 7.774 C 138.358 8.417,138.646 8.800,139.696 8.800 C 140.193 8.800,140.414 8.568,140.329 8.133 C 140.160 7.260,139.520 7.096,138.924 7.774 M134.500 9.065 C 133.797 9.349,133.875 10.400,134.600 10.400 C 134.933 10.400,135.200 10.044,135.200 9.600 C 135.200 9.160,135.155 8.814,135.100 8.832 C 135.045 8.849,134.775 8.954,134.500 9.065 M357.043 74.169 C 357.282 74.790,358.400 75.365,358.400 74.867 C 358.400 74.470,357.530 73.600,357.133 73.600 C 356.963 73.600,356.923 73.856,357.043 74.169 M358.400 76.800 C 358.400 77.333,358.667 77.600,359.200 77.600 C 359.733 77.600,360.000 77.333,360.000 76.800 C 360.000 76.267,359.733 76.000,359.200 76.000 C 358.667 76.000,358.400 76.267,358.400 76.800 M25.011 99.846 C 24.244 100.613,24.378 101.291,25.322 101.430 C 25.827 101.504,26.000 101.232,26.000 100.365 C 26.000 99.020,25.893 98.964,25.011 99.846 M23.333 103.467 C 23.333 103.760,23.573 104.000,23.867 104.000 C 24.160 104.000,24.400 103.760,24.400 103.467 C 24.400 103.173,24.160 102.933,23.867 102.933 C 23.573 102.933,23.333 103.173,23.333 103.467 M377.200 105.000 C 377.200 105.330,377.492 105.600,377.849 105.600 C 378.380 105.600,378.408 105.491,378.000 105.000 C 377.726 104.670,377.434 104.400,377.351 104.400 C 377.268 104.400,377.200 104.670,377.200 105.000 M10.651 130.212 C 10.475 130.670,10.598 130.821,11.073 130.729 C 11.783 130.592,11.920 129.907,11.279 129.693 C 11.070 129.623,10.787 129.857,10.651 130.212 M390.000 134.400 C 390.000 134.844,390.267 135.200,390.600 135.200 C 391.273 135.200,391.300 135.127,390.957 134.233 C 390.614 133.339,390.000 133.446,390.000 134.400 M9.477 134.543 C 9.344 134.890,9.419 135.288,9.644 135.427 C 10.267 135.812,10.519 135.342,10.096 134.586 C 9.759 133.984,9.693 133.980,9.477 134.543 M391.433 139.058 C 391.092 139.948,391.123 140.000,392.000 140.000 C 392.440 140.000,392.800 139.749,392.800 139.443 C 392.800 138.643,391.710 138.336,391.433 139.058 M99.704 169.300 C 99.244 169.795,97.480 172.900,95.785 176.200 C 94.089 179.500,91.076 185.350,89.089 189.200 C 87.103 193.050,84.326 198.450,82.919 201.200 C 81.512 203.950,80.204 206.470,80.013 206.800 C 79.822 207.130,79.178 208.390,78.582 209.600 C 77.986 210.810,77.149 212.295,76.722 212.900 L 75.946 214.000 53.253 214.000 C 36.136 214.000,30.442 214.118,30.080 214.480 C 28.680 215.880,29.792 217.218,37.000 222.808 C 38.540 224.002,40.610 225.650,41.600 226.469 C 42.590 227.288,47.270 231.042,52.000 234.811 C 56.730 238.580,60.706 241.958,60.835 242.317 C 60.972 242.697,60.117 244.812,58.787 247.385 C 56.394 252.011,51.081 262.276,50.449 263.492 C 50.247 263.881,49.369 265.640,48.499 267.400 C 46.290 271.870,42.819 278.492,42.426 278.987 C 42.246 279.214,41.965 279.832,41.803 280.361 C 41.640 280.889,40.988 282.202,40.354 283.278 C 39.103 285.399,38.933 286.373,39.680 287.120 C 40.345 287.785,41.802 287.721,42.400 287.000 C 42.674 286.670,43.065 286.400,43.269 286.400 C 43.472 286.400,44.665 285.702,45.920 284.848 C 47.174 283.995,49.820 282.262,51.800 280.998 C 53.780 279.734,56.704 277.867,58.298 276.850 C 59.892 275.832,63.198 273.695,65.645 272.100 C 68.092 270.505,70.225 269.200,70.385 269.200 C 70.545 269.200,71.002 268.840,71.400 268.400 C 71.798 267.960,72.282 267.600,72.475 267.600 C 72.816 267.600,78.399 264.068,78.800 263.598 C 80.357 261.777,83.221 261.267,84.703 262.546 C 85.307 263.067,87.420 264.911,89.400 266.645 C 91.380 268.379,93.180 269.936,93.400 270.105 C 93.838 270.441,94.497 271.010,98.614 274.600 C 101.369 277.003,102.853 278.287,107.628 282.400 C 109.033 283.610,110.926 285.275,111.836 286.100 C 113.599 287.700,114.787 287.979,115.610 286.988 C 116.218 286.256,115.927 278.494,115.223 276.654 C 114.982 276.024,114.688 273.864,114.570 271.854 C 114.452 269.844,114.104 266.490,113.797 264.400 C 113.490 262.310,113.045 258.260,112.808 255.400 C 112.572 252.540,112.176 248.620,111.930 246.689 C 111.479 243.160,112.105 241.200,113.683 241.200 C 113.871 241.200,115.235 240.433,116.713 239.496 C 118.191 238.559,119.760 237.578,120.200 237.317 C 120.640 237.055,122.260 236.069,123.800 235.125 C 126.909 233.219,126.914 233.216,130.471 231.084 C 131.862 230.251,134.260 228.781,135.800 227.818 C 137.340 226.855,140.310 225.058,142.400 223.824 C 147.147 221.021,147.322 220.915,150.000 219.205 C 151.210 218.432,152.560 217.615,153.000 217.390 C 153.440 217.164,153.859 216.570,153.931 216.068 C 154.235 213.943,154.877 214.000,130.731 214.000 L 108.359 214.000 107.764 212.575 C 107.436 211.791,106.994 208.866,106.782 206.075 C 106.570 203.284,106.124 198.840,105.792 196.200 C 105.460 193.560,105.015 189.420,104.804 187.000 C 104.594 184.580,104.243 181.663,104.024 180.518 C 103.806 179.373,103.503 176.510,103.351 174.155 C 102.997 168.675,101.784 167.060,99.704 169.300 M101.349 171.500 C 101.623 172.447,102.283 177.336,102.793 182.200 C 103.482 188.778,104.359 196.768,104.811 200.600 C 105.045 202.580,105.491 206.437,105.803 209.171 C 106.597 216.127,103.788 215.365,129.481 215.600 C 143.531 215.729,151.376 215.943,151.451 216.200 C 151.574 216.618,151.011 217.001,143.800 221.420 C 137.849 225.066,134.988 226.786,130.528 229.400 C 129.024 230.282,119.772 235.909,114.319 239.259 C 112.405 240.435,110.663 241.782,110.449 242.252 C 110.056 243.115,110.739 251.727,111.572 256.400 C 111.787 257.610,112.072 260.130,112.205 262.000 C 112.338 263.870,112.698 267.290,113.006 269.600 C 113.314 271.910,113.757 275.690,113.991 278.000 C 114.224 280.310,114.525 282.872,114.659 283.693 C 115.183 286.904,114.083 286.348,106.174 279.400 C 102.799 276.435,100.200 274.180,96.215 270.760 C 95.344 270.012,94.345 269.130,93.995 268.800 C 93.646 268.470,92.302 267.300,91.009 266.200 C 89.717 265.100,88.374 263.930,88.025 263.600 C 83.963 259.758,82.799 259.404,80.138 261.200 C 79.160 261.860,78.285 262.400,78.193 262.400 C 78.100 262.400,76.984 263.099,75.713 263.953 C 74.441 264.808,72.050 266.367,70.400 267.419 C 66.369 269.988,61.868 272.907,56.800 276.239 C 54.490 277.758,52.420 279.068,52.200 279.151 C 51.790 279.305,45.860 283.096,43.916 284.447 C 41.165 286.358,40.792 285.134,42.927 281.200 C 43.583 279.990,45.687 275.940,47.601 272.200 C 58.506 250.892,60.860 246.317,61.592 245.015 C 63.182 242.184,62.975 241.827,56.900 236.953 C 45.198 227.563,37.408 221.342,35.641 219.978 C 32.727 217.728,31.507 216.474,31.787 216.021 C 31.964 215.735,39.083 215.600,54.001 215.600 L 75.955 215.600 76.975 214.700 C 77.535 214.205,78.912 212.000,80.035 209.800 C 81.157 207.600,83.567 202.920,85.390 199.400 C 87.213 195.880,90.553 189.400,92.813 185.000 C 100.456 170.119,100.794 169.585,101.349 171.500 M391.276 260.700 C 391.350 261.085,391.676 261.400,392.000 261.400 C 392.324 261.400,392.650 261.085,392.724 260.700 C 392.818 260.209,392.602 260.000,392.000 260.000 C 391.398 260.000,391.182 260.209,391.276 260.700 M9.454 265.398 C 9.581 265.726,9.845 265.896,10.042 265.774 C 10.607 265.425,10.460 264.800,9.813 264.800 C 9.456 264.800,9.315 265.035,9.454 265.398 M390.000 265.433 C 390.000 265.782,390.214 265.995,390.475 265.908 C 391.217 265.661,391.340 264.800,390.633 264.800 C 390.285 264.800,390.000 265.085,390.000 265.433 M10.703 268.997 C 10.494 270.091,11.332 271.158,11.802 270.397 C 12.142 269.846,11.708 268.000,11.239 268.000 C 11.049 268.000,10.807 268.449,10.703 268.997 M388.538 269.817 C 388.214 270.661,388.755 271.117,389.216 270.388 C 389.705 269.614,389.695 269.200,389.187 269.200 C 388.961 269.200,388.668 269.478,388.538 269.817 M375.829 297.500 C 376.028 297.665,376.303 297.950,376.440 298.134 C 376.577 298.317,376.798 298.182,376.932 297.834 C 377.107 297.377,376.936 297.200,376.321 297.200 C 375.851 297.200,375.630 297.335,375.829 297.500 M24.473 299.500 C 24.549 300.155,24.843 300.600,25.200 300.600 C 25.557 300.600,25.851 300.155,25.927 299.500 C 26.030 298.604,25.895 298.400,25.200 298.400 C 24.505 298.400,24.370 298.604,24.473 299.500 M26.400 302.800 C 27.176 303.301,27.600 303.301,27.600 302.800 C 27.600 302.580,27.195 302.403,26.700 302.406 C 25.972 302.411,25.915 302.486,26.400 302.800 M36.933 318.582 C 36.933 318.903,37.083 319.072,37.267 318.959 C 37.450 318.845,37.600 318.954,37.600 319.200 C 37.600 319.446,37.780 319.536,38.000 319.400 C 38.676 318.982,38.443 318.000,37.667 318.000 C 37.263 318.000,36.933 318.262,36.933 318.582 M42.091 324.336 C 41.701 324.583,41.772 324.832,42.391 325.391 C 43.184 326.109,43.200 326.103,43.200 325.062 C 43.200 323.955,42.949 323.791,42.091 324.336 M102.400 375.920 C 102.400 376.334,103.266 377.200,103.680 377.200 C 103.856 377.200,104.000 376.840,104.000 376.400 C 104.000 375.867,103.733 375.600,103.200 375.600 C 102.760 375.600,102.400 375.744,102.400 375.920 M105.757 377.833 C 105.891 378.181,106.000 378.541,106.000 378.633 C 106.000 378.725,106.270 378.800,106.600 378.800 C 106.933 378.800,107.200 378.444,107.200 378.000 C 107.200 377.453,106.933 377.200,106.357 377.200 C 105.753 377.200,105.583 377.379,105.757 377.833 M120.400 384.400 C 120.400 384.840,120.580 385.200,120.800 385.200 C 121.020 385.200,121.200 384.840,121.200 384.400 C 121.200 383.960,121.020 383.600,120.800 383.600 C 120.580 383.600,120.400 383.960,120.400 384.400 M124.800 387.157 C 124.800 387.354,125.070 387.618,125.400 387.745 C 125.765 387.885,126.000 387.745,126.000 387.387 C 126.000 387.064,125.730 386.800,125.400 386.800 C 125.070 386.800,124.800 386.961,124.800 387.157 M129.592 388.405 C 128.971 388.789,129.280 389.306,130.212 389.443 C 130.535 389.490,130.800 389.286,130.800 388.988 C 130.800 388.240,130.272 387.985,129.592 388.405 M133.864 389.896 C 133.549 390.406,134.090 391.042,135.043 391.283 C 135.709 391.451,135.877 391.318,135.843 390.648 C 135.799 389.784,134.288 389.210,133.864 389.896 M264.769 389.937 C 264.753 390.082,264.680 390.503,264.609 390.874 C 264.498 391.447,264.621 391.482,265.439 391.109 C 265.968 390.869,266.400 390.541,266.400 390.382 C 266.400 390.017,264.811 389.583,264.769 389.937 M138.578 391.635 C 138.203 392.243,138.969 392.903,139.853 392.733 C 141.051 392.502,141.051 391.200,139.853 391.200 C 139.300 391.200,138.726 391.396,138.578 391.635 M260.000 392.000 C 260.000 392.440,260.259 392.800,260.576 392.800 C 261.411 392.800,261.797 391.970,261.151 391.561 C 260.295 391.019,260.000 391.132,260.000 392.000 M151.600 395.000 C 151.600 395.330,151.761 395.600,151.957 395.600 C 152.154 395.600,152.418 395.330,152.545 395.000 C 152.685 394.635,152.545 394.400,152.187 394.400 C 151.864 394.400,151.600 394.670,151.600 395.000 " stroke="none" fill="#8888c0" fill-rule="evenodd"></path></g></svg>